<?xml version="1.0" ?><svg viewBox="0 0 1000 1000" xmlns="http://www.w3.org/2000/svg"><g fill="#18c4ff"><path d="m25.71 470.78c30.51-51.55 84.87-83 138.45-106.06 63.16-27.11 129.72-46.25 196.74-61.06 68.71-15.19 138.31-25.3 208-34.78 70.32-9.57 140.88-19.15 209.71-36.84 61.89-15.92 122.79-38.41 177.1-72.5q10.08-6.33 19.81-13.18c1.07-.76.05-2.54-1-1.78-53.68 37.68-114.98 62.81-177.85 80.42-68.09 19.1-138.21 29.48-208.14 39.07-70.5 9.66-141 19.21-210.68 33.81-68.2 14.3-135.7 33-200.36 59.13-52.57 21.32-106.49 49.32-141.49 95.43a181.78 181.78 0 0 0 -11.71 17.56.82.82 0 0 0 1.42.82z"/><path d="m25.71 500c30.51-51.52 84.87-83 138.45-106 63.16-27.12 129.72-46.26 196.74-61.07 68.71-15.19 138.31-25.3 208-34.78 70.32-9.57 140.88-19.14 209.71-36.84 61.89-15.91 122.79-38.4 177.1-72.5q10.08-6.33 19.81-13.18c1.07-.76.05-2.54-1-1.78-53.64 37.68-114.94 62.82-177.81 80.46-68.09 19.11-138.21 29.48-208.14 39.07-70.5 9.66-141 19.21-210.68 33.82-68.2 14.29-135.7 32.95-200.36 59.12-52.61 21.25-106.53 49.25-141.53 95.36a181.78 181.78 0 0 0 -11.71 17.52.82.82 0 0 0 1.42.83z"/><path d="m25.71 529.27c30.51-51.55 84.87-83.06 138.45-106.06 63.16-27.12 129.72-46.21 196.74-61.07 68.71-15.19 138.31-25.3 208-34.78 70.32-9.57 140.88-19.14 209.71-36.84 61.89-15.91 122.79-38.4 177.1-72.5q10.08-6.33 19.81-13.18c1.07-.75.05-2.54-1-1.77-53.64 37.68-114.94 62.81-177.81 80.45-68.13 19.11-138.25 29.48-208.18 39.07-70.5 9.67-141 19.21-210.68 33.82-68.2 14.29-135.7 32.95-200.36 59.13-52.57 21.27-106.49 49.27-141.49 95.39a180.41 180.41 0 0 0 -11.72 17.51.82.82 0 0 0 1.42.83z"/><path d="m25.71 558.51c30.51-51.51 84.87-83.06 138.45-106.06 63.16-27.12 129.72-46.25 196.74-61.07 68.71-15.19 138.31-25.29 208-34.78 70.32-9.57 140.88-19.14 209.71-36.84 61.89-15.91 122.79-38.4 177.1-72.5q10.08-6.33 19.81-13.18c1.07-.75.05-2.53-1-1.77-53.68 37.69-114.98 62.81-177.85 80.45-68.09 19.11-138.21 29.48-208.14 39.07-70.5 9.67-141 19.22-210.68 33.82-68.2 14.29-135.7 33-200.36 59.13-52.57 21.28-106.49 49.27-141.49 95.39a180.41 180.41 0 0 0 -11.72 17.51.82.82 0 0 0 1.42.83z"/><path d="m25.71 587.75c30.51-51.55 84.87-83.05 138.45-106.06 63.16-27.12 129.72-46.25 196.74-61.06 68.71-15.19 138.31-25.3 208-34.79 70.32-9.56 140.88-19.14 209.71-36.83 61.89-15.92 122.79-38.41 177.1-72.51q10.08-6.31 19.81-13.18c1.07-.75.05-2.53-1-1.77-53.68 37.68-114.98 62.81-177.85 80.45-68.09 19.1-138.21 29.47-208.14 39.06-70.5 9.67-141 19.22-210.68 33.82-68.2 14.3-135.7 33-200.36 59.13-52.57 21.29-106.49 49.28-141.49 95.4a181.64 181.64 0 0 0 -11.72 17.51.82.82 0 0 0 1.42.83z"/></g><path d="m700.45 438.64a716.76 716.76 0 0 0 -77.45 104.84c-10.12 16.69-19.66 34-24.55 52.92s-4.79 39.69 3.85 57.19c7.85 15.92 21.9 27.75 35.55 39.09l146.55 121.75c5.41 4.49 11.2 9.66 12.1 16.63.45 3.48-.26 7.48 2.08 10.09 4 4.45 11.15 0 15-4.54a182.26 182.26 0 0 0 19.42-27.49c1.82-3.17 3.59-6.52 3.9-10.18.48-5.63-2.55-10.89-5.46-15.73-33.89-56.21-68.15-112.88-113.89-159.87-2.15-2.2-4.39-4.5-5.31-7.44-1.6-5.12 1.22-10.46 3.86-15.13a402.07 402.07 0 0 0 47.6-139.91" fill="#fff"/><path d="m814.33 755c-6.12 10.68-12.29 21.34-19.68 31.17a112 112 0 0 1 -19.57 20.48l9.32 7.74c5.41 4.49 11.2 9.66 12.1 16.63.45 3.48-.26 7.48 2.08 10.09 4 4.45 11.15 0 15-4.54a182.26 182.26 0 0 0 19.42-27.45c1.82-3.17 3.59-6.52 3.9-10.18.48-5.63-2.55-10.89-5.46-15.73q-8.53-14.08-17.11-28.21z" fill="#18c4ff"/><path d="m700 438.14a709.2 709.2 0 0 0 -60.07 77c-9.06 13.47-17.84 27.22-25.74 41.41-7.76 13.91-14.55 28.65-17.86 44.31-3.09 14.68-3.18 30.32 1.56 44.67 4.6 14 13.94 25.35 24.55 35.23 12 11.15 25 21.26 37.57 31.71l40.8 33.91 81.91 68.06c5.3 4.41 11.74 9.44 12.72 16.75.41 3-.1 6.28 1.3 9.1a6.71 6.71 0 0 0 6.1 3.79c6.57-.06 11.38-6.34 15.07-10.94a186.52 186.52 0 0 0 13.78-19.71c3.8-6.27 7.71-12.7 5.69-20.29a40 40 0 0 0 -4.65-9.87c-2.1-3.52-4.23-7-6.34-10.53-8.24-13.65-16.53-27.27-25-40.75-16.91-26.77-34.73-53-54.72-77.59q-7.51-9.23-15.45-18.11-4.1-4.57-8.3-9c-2.68-2.83-5.81-5.51-8-8.72-5.12-7.42 1.66-16 5.23-22.6q5.72-10.52 10.8-21.35a408.25 408.25 0 0 0 29.73-90.62c1.56-7.58 2.79-15.22 3.89-22.88.17-1.14-1.57-1.63-1.74-.48a396.16 396.16 0 0 1 -24.17 90.51 416.31 416.31 0 0 1 -20.19 43c-3.21 6-8.57 12.85-7.7 20 .41 3.38 2.36 6.07 4.62 8.5 2.58 2.78 5.27 5.46 7.86 8.24 21.46 23 40.43 48.19 58 74.25 17.42 25.81 33.63 52.45 49.59 79.18 2.09 3.5 4.22 7.18 4.84 11.27s-.84 7.89-2.79 11.47a167.65 167.65 0 0 1 -12.89 19.86c-2.39 3.18-4.84 6.39-7.52 9.34-2.2 2.43-5.14 4.84-8.43 5.49-4.14.82-5.92-2.61-6.14-6.21-.2-3.18-.24-6.15-1.54-9.13-2.73-6.27-8.51-10.59-13.62-14.84l-20.09-16.69-39.88-33.13q-40.21-33.39-80.41-66.75c-11.28-9.38-23-18.67-31.94-30.46a70.82 70.82 0 0 1 -14.1-42.14c-.45-32.09 16.58-60.87 33-87.2a732.48 732.48 0 0 1 56.4-78.28q7.46-9 15.19-17.75c.61-.69-.39-1.7-1-1z"/><path d="m791.85 414.54c26.55 24.42 22.83 68.78 4.62 99.93s-47.38 54.14-70.35 82q72.06-34.28 145.76-64.94c3-1.26 6.22-2.53 9.45-2 4.08.62 7.18 3.89 9.78 7.1a122.33 122.33 0 0 1 24.71 52.34c-7.46 6.15-17.76-5.31-27.38-4.39-4.1.4-7.58 3-10.78 5.64-30.43 24.6-58.14 52.53-89.63 75.76s-67.86 41.94-106.91 44.42c-15.19 1-31.56-1-43.24-10.72-7-5.86-11.76-14.11-14.61-22.79-12.49-38 9.45-77.88 30.55-111.84q35.29-56.78 70.57-113.56" fill="#fff"/><path d="m888.44 584.51c9.62-.92 19.92 10.54 27.38 4.39a122.44 122.44 0 0 0 -24.71-52.34c-2.6-3.21-5.7-6.48-9.78-7.1-3.23-.49-6.43.78-9.45 2q-15 6.25-30 12.67a116.58 116.58 0 0 1 30.7 50.14q2.52-2.09 5.07-4.16c3.21-2.55 6.69-5.2 10.79-5.6z" fill="#18c4ff"/><path d="m791.24 415.15c18.93 17.91 21.52 46.13 15.58 70.29a114.67 114.67 0 0 1 -16.76 36.79c-8.58 12.71-18.88 24.12-29.43 35.2-12 12.55-24.35 24.73-35.4 38.12a1.27 1.27 0 0 0 1.53 2q44-21 88.62-40.6 22.18-9.76 44.5-19.15 5.61-2.37 11.24-4.71c3.48-1.45 7.39-3.36 11.23-2.19 3.19 1 5.59 3.65 7.65 6.14 2.28 2.76 4.4 5.66 6.4 8.63a122 122 0 0 1 18.3 43.56l.3-1.12c-5 4-12.33-.93-17.21-2.88a20.74 20.74 0 0 0 -9.16-1.88c-4.08.32-7.51 2.61-10.63 5.06-14.48 11.37-28.12 23.85-41.89 36.05s-27.83 24.54-42.54 35.81a299.11 299.11 0 0 1 -43.45 28.2 188.7 188.7 0 0 1 -48 17.76c-15.79 3.35-33.36 5.14-49 .17a41.38 41.38 0 0 1 -19.73-13.09c-5.29-6.47-8.6-14.42-10.53-22.49-4-16.88-1.43-34.41 4.11-50.62 5.81-17 14.64-32.85 23.94-48.16 10.16-16.73 20.63-33.27 30.95-49.89l7.64-12.3c.79-1.27-1.22-2.44-2-1.17q-16.05 25.84-32.13 51.69c-9.72 15.63-19.33 31.4-26.52 48.38-6.74 15.94-11.44 33.25-10.14 50.7 1.21 16.27 7.53 33.7 21.41 43.32 13.48 9.34 31.12 9.92 46.87 8.27a170.36 170.36 0 0 0 49.69-13.5 256.75 256.75 0 0 0 45.61-26c15.17-10.66 29.43-22.56 43.4-34.74 14.2-12.39 28.12-25.09 42.51-37.26 3.61-3 7.24-6.08 10.93-9 3.24-2.6 6.87-5.1 11.21-4.87 6.69.35 12.18 5.21 18.75 6.11a9.71 9.71 0 0 0 7.61-2 1.16 1.16 0 0 0 .3-1.12 124.13 124.13 0 0 0 -16.08-40.32c-1.86-3-3.85-5.91-6-8.73a49 49 0 0 0 -6.77-7.88 12.61 12.61 0 0 0 -8.68-3.47c-3.9.15-7.55 2-11.09 3.52q-46.2 19.26-91.81 39.94-25.63 11.61-51.06 23.69l1.52 2c20.12-24.29 44.69-44.72 63-70.54 8.13-11.45 14.63-23.83 18.4-37.41a94.83 94.83 0 0 0 3-38.49c-2-14.05-8.35-27.37-18.91-37-.82-.74-2 .45-1.22 1.22z"/><path d="m761.62 292.85c-14.7-4-29.93 2.46-44.31 7.47-12.62 4.4-25.68 7.8-37.47 14.07s-22.5 16-26.38 28.78c-4.74 15.57 1.36 32.22 8.23 47s14.8 30 13.81 46.25c-.19 3-.66 6.09.39 8.89 1.92 5.14 8 7.21 13.44 8.1 18.18 3 37 .1 54.37-5.95s33.57-15.18 49.23-24.89c3.05-1.89 6.26-4 7.64-7.32a14.76 14.76 0 0 0 .57-7.53c-1.45-11.25-7.19-21.44-10.56-32.28-4.38-14.08-4.71-29.05-7.09-43.6s-2.25-29.15-20.55-38.64"/><path d="m761.82 292.14c-17.44-4.74-35.09 4.09-51.35 9.37-15.78 5.12-32.27 10-44.88 21.32a45.84 45.84 0 0 0 -12.59 17.85c-3 7.95-3 16.61-1.34 24.85 3.44 17.41 13.62 32.33 19.21 49a68.63 68.63 0 0 1 3 12.48 47.36 47.36 0 0 1 .45 6.73c0 2.18-.26 4.34-.33 6.51-.12 3.73.85 7.26 3.74 9.77a20.7 20.7 0 0 0 9.17 4.14 87.36 87.36 0 0 0 25.92 1.26 125.23 125.23 0 0 0 26.5-5.29c17.08-5.31 33-13.73 48.24-22.94 3.52-2.12 7.3-4.12 10.44-6.8a12.32 12.32 0 0 0 4.45-10.2c-.28-8.66-4-17-7.13-24.94a126.24 126.24 0 0 1 -4.32-12.39 117.8 117.8 0 0 1 -2.84-13.53c-1.41-9.08-2.08-18.26-3.59-27.33-1-5.92-1.59-12-3.22-17.76a33.58 33.58 0 0 0 -9.07-15.55 39.49 39.49 0 0 0 -8.93-6.22c-.94-.5-1.78.93-.84 1.43 6 3.15 11.22 7.56 14.34 13.67 2.64 5.17 3.68 11 4.49 16.65 1.07 7.43 2.13 14.86 3 22.32 1 8.65 1.95 17.36 4.18 25.8 2.17 8.17 5.84 15.81 8.58 23.79a56.28 56.28 0 0 1 3 12.47 12.51 12.51 0 0 1 -.67 6.39 11.57 11.57 0 0 1 -3.45 4.1 93.51 93.51 0 0 1 -10.32 6.53c-3.69 2.21-7.41 4.37-11.18 6.45a217.84 217.84 0 0 1 -23.33 11.29c-16.13 6.55-33.48 10.68-51 9.94a73.83 73.83 0 0 1 -12.39-1.42c-3.11-.67-6.43-1.73-8.76-4-3-2.94-2.62-6.93-2.35-10.79a51.74 51.74 0 0 0 -.64-12.24c-2.8-16.83-12.46-31.34-18.29-47.14-2.9-7.84-5-16.14-4.71-24.56a38.25 38.25 0 0 1 7.43-21.15c9.36-12.86 24.4-19.59 39-24.63 8.14-2.81 16.34-5.43 24.46-8.33s16.41-5.88 25.06-6.52a38.47 38.47 0 0 1 12.47 1 .74.74 0 0 0 .4-1.42z"/><path d="m693.19 308.42a427.88 427.88 0 0 0 -68.45 35c-2.61 1.65-5.28 3.39-7 5.93-3.05 4.36-2.87 10.2-1.86 15.43 2.67 13.94 10.15 26.41 17.5 38.55 2 3.32 4.43 6.95 8.23 7.79 2.5.55 5.08-.26 7.5-1.1a195.48 195.48 0 0 0 37.23-17.58"/><path d="m693 307.74a362.16 362.16 0 0 0 -39.29 17.8q-9.51 5-18.77 10.41-4.63 2.71-9.19 5.55a37.23 37.23 0 0 0 -7.6 5.53c-4.35 4.56-4.62 11-3.66 16.9a74.88 74.88 0 0 0 6.44 19.6 199.4 199.4 0 0 0 10 18.12c2.83 4.72 6.08 10.89 12.41 10.87 3.85 0 7.74-1.88 11.27-3.23q5.56-2.12 11-4.57a163.92 163.92 0 0 0 21.28-11.28 1.13 1.13 0 0 0 -1.14-1.95c-11.89 6.81-24 12.92-37 17.41-3 1.05-6.28 2-9.18.11-2.3-1.48-3.81-4-5.2-6.25-3.36-5.51-6.69-11-9.62-16.79a85.6 85.6 0 0 1 -7.13-18.41c-1.38-5.63-2.5-12.53 1.07-17.61 1.76-2.51 4.47-4.17 7-5.79q4.34-2.75 8.74-5.38 8.7-5.23 17.64-10c13.5-7.25 27.4-13.69 41.47-19.72.73-.31.2-1.57-.54-1.29z"/><path d="m722.17 293.43c7.52-.75 14.65-3.64 21.58-6.65q18.5-8.05 36.29-17.63c5.78-3.11 12.13-6.45 18.57-5.17 7.56 1.5 12.37 13.4 16.33 20 3.47 5.78 6.75 14.73 8.71 21.17s2.26 13.65-.59 19.75c-2.51 5.36-7.15 9.36-11.76 13.07-16.22 13.08-44.76 25.63-67.4 37.06"/><path d="m722.17 294.13c8.8-.79 16.91-4.29 24.92-7.78q12.67-5.52 25-11.83c4.06-2.07 8.05-4.31 12.13-6.35 3.85-1.92 8.06-3.63 12.44-3.37 6.52.4 10.25 6.95 13.11 12.05 3.37 6 6.78 11.94 9.29 18.35 2.87 7.32 6 15.3 4.77 23.29-1.24 8.39-7.37 14-13.68 19a141.5 141.5 0 0 1 -18 11.78c-14.14 8.07-28.93 14.91-43.52 22.12l-5.3 2.65c-1.33.67-.16 2.66 1.16 2 15.07-7.61 30.44-14.63 45.23-22.79a170.42 170.42 0 0 0 19.35-12.12c6.13-4.56 12.71-9.78 15.59-17.11 3.09-7.87 1.2-16.12-1.44-23.8a120.06 120.06 0 0 0 -4.52-11.4c-1.41-3.05-3.16-5.91-4.76-8.87-3-5.44-5.95-11.84-11.26-15.39-6.89-4.62-15.79-.28-22.18 3.14q-12.57 6.74-25.43 12.86c-8.39 4-16.9 8.19-25.86 10.73a47.16 47.16 0 0 1 -7 1.45c-.87.11-.91 1.47 0 1.39z"/><path d="m233 136.65a28.26 28.26 0 0 0 -12.91 5.57c-3.91 3-7 6.92-10 10.79a145.14 145.14 0 0 1 -20.83 21.37c-14.8 12.53-31.14 23.35-44.2 37.82a85.37 85.37 0 0 0 -15.25 22.89 72.7 72.7 0 0 0 -5.81 29.28c.07 20 7.54 39.17 18.35 55.77a159.23 159.23 0 0 0 17.84 22.74c6.32 6.66 13.51 12.71 21.78 16.8a57.49 57.49 0 0 0 6.27 2.66c1.48.53 2.11-1.82.65-2.34-17.43-6.21-30.52-21.2-41-35.87-11.18-15.73-19.68-33.84-21.28-53.28a74 74 0 0 1 3.24-29.38 74.92 74.92 0 0 1 13.5-23.73c12-14.59 27.55-25.43 42.08-37.25a169.72 169.72 0 0 0 21.08-19.74c6.27-7.2 11.17-15.84 20-20.29a29.76 29.76 0 0 1 6.84-2.41c.93-.21.52-1.54-.38-1.4z"/><path d="m231.19 430.08a262.7 262.7 0 0 1 115.2 42.51c10.73 7.19 21.15 15.42 28 26.38 13.89 22.29 10.39 51.07 3.63 76.45-9.14 34.4-27.2 74.94-45.93 105.2-4.76 7.69-10 16.36-7.9 25.15.84 3.48 2.28 8.25-1 9.77a5.76 5.76 0 0 1 -2.92.32c-10.27-.86-19.36-6.86-27.44-13.28-6-4.77-12.1-10.48-13.4-18s2.62-15.11 5.82-22.2c17.3-38.31 16.66-84.64 34.42-122.74-110.87-13.64-150.33-17.95-144.8-119.5"/><path d="m231.19 430.81a261.68 261.68 0 0 1 112.06 41c8.13 5.32 16.09 11.08 22.75 18.21a59.64 59.64 0 0 1 13.85 24.19c5.25 18.15 2.73 37.66-1.62 55.72a350.8 350.8 0 0 1 -18.87 55.22 414.48 414.48 0 0 1 -26.72 52.51c-4.83 8-11.23 16.86-9.8 26.72.36 2.51 3.36 9.52-.71 10.37-2.29.48-5.18-.36-7.4-1a40.49 40.49 0 0 1 -6.9-2.62 71.54 71.54 0 0 1 -12.08-7.68 63.33 63.33 0 0 1 -10.33-9.29c-3.06-3.62-5.19-8-5.18-12.78 0-5.32 2.21-10.37 4.37-15.13a191.8 191.8 0 0 0 10.07-27c2.7-9.48 4.82-19.11 6.77-28.77 3.88-19.18 7.13-38.67 13.7-57.17q2.39-6.72 5.4-13.2a1 1 0 0 0 -.88-1.53c-18.92-2.38-37.87-4.62-56.67-7.8-14.05-2.38-28.22-5.23-41.57-10.3-10.18-3.87-19.92-9.31-27.39-17.35-7.66-8.24-12.27-18.66-14.88-29.5-3.64-15.15-3.88-31-3.38-46.48.08-2.34.17-4.68.3-7 .08-1.55-2.33-1.55-2.41 0-.89 16.46-1 33.23 2.13 49.49 2.22 11.53 6.37 22.79 13.76 32.05 6.93 8.69 16.37 14.89 26.5 19.26 12.84 5.53 26.61 8.62 40.32 11.07 18.34 3.29 36.86 5.46 55.35 7.67l7.94 1-.88-1.54c-8.42 18.25-12.79 38.05-16.79 57.7s-7.66 39.88-15.09 58.76c-1.88 4.76-4.2 9.33-6.12 14.08s-3.28 9.77-2.46 14.89c1.45 9.13 9.39 15.51 16.31 20.77a70.91 70.91 0 0 0 12.76 8c4.21 2 9.14 3.7 13.86 3.63 4.3-.06 5.38-3.71 4.82-7.36-.31-2.06-1-4.05-1.26-6.12a20 20 0 0 1 .8-7.73c1.5-5.17 4.39-9.83 7.2-14.38q3.75-6.07 7.27-12.29c5-8.91 9.73-18 14.12-27.26a409.57 409.57 0 0 0 22.32-57.11c5.53-18.34 10-37.82 8.18-57.09a67.58 67.58 0 0 0 -7.71-26.56c-4.72-8.56-11.65-15.64-19.27-21.68a205.19 205.19 0 0 0 -25.28-16.78 260.93 260.93 0 0 0 -27.61-13.75 264.88 264.88 0 0 0 -59-17.45q-7.26-1.25-14.58-2.08c-.94-.11-.93 1.36 0 1.47z"/><path d="m140 399.23c-10.76 32.17-11.32 67.09-6.11 100.61s16 65.9 27.67 97.76c3 8.35 6.18 16.73 7.9 25.45 2 10.1 2.06 20.46 2.19 30.75.79 64.55 4.07 129.47 18.46 192.41 1.59 6.95 4.67 15.19 11.71 16.32 2.62.42 5.27-.32 7.83-1 13.91-4 21.91-7.69 37.2-11.68a8.22 8.22 0 0 0 6.33-7.83c-.06-4.28-3.92-5.92-7.33-7.14-5-1.79-7.59-3.68-11.24-5.52a6.79 6.79 0 0 1 -3.46-7.8c13.15-50.44 15.57-153.13 13.24-205.2-2.3-51.47-36.95-156.55-48.26-206.81"/><path d="m139.31 399c-12.39 36.8-11.51 76.42-4.07 114.15a465.37 465.37 0 0 0 15.9 58c3.18 9.5 6.57 18.94 10 28.35 3.35 9.2 6.62 18.45 8 28.18 1.47 10.12 1.32 20.4 1.46 30.6q.21 15 .64 30.06c.61 20.33 1.62 40.65 3.3 60.93 1.66 20 4 40 7.21 59.87q2.41 14.8 5.55 29.48c1.51 7.07 2.59 15.4 7.54 21.06 5.74 6.56 14.05 3.26 21.12 1 7.72-2.42 15.3-5.28 23-7.62 3.7-1.13 8.31-1.58 11.46-3.93a8.81 8.81 0 0 0 3.63-8.1c-.43-3.11-2.88-5-5.59-6.23-3.57-1.59-7.12-2.9-10.55-4.81-1.54-.86-3.45-1.55-4.63-2.9-1.6-1.83-1.57-4-1-6.24.69-2.7 1.32-5.41 1.91-8.13 1.3-6.07 2.38-12.19 3.33-18.32 2.17-14 3.66-28.13 4.84-42.26 2.52-30.29 3.61-60.72 3.73-91.12.1-24 0-48-3.9-71.76-4.7-28.33-12-56.22-19.48-83.93-7.27-27-15.11-53.85-22-80.95-1.28-5-2.52-10.09-3.67-15.16-.28-1.25-2.2-.72-1.92.53 5.54 24.52 12.67 48.69 19.35 72.92 7.77 28.16 15.49 56.39 21.58 85 2.62 12.28 5 24.66 6.37 37.15 1.21 10.82 1.38 21.75 1.56 32.63q.75 43.1-1.67 86.2c-1.55 28.14-3.76 56.51-9.16 84.22-.54 2.76-1.12 5.52-1.75 8.26-.59 2.54-1.74 5.35-1.46 8 .37 3.31 2.54 5.17 5.3 6.65a85.86 85.86 0 0 0 10.3 5c3.64 1.36 7.73 3.47 6.3 8.13-1.48 4.83-7 5.3-11.12 6.5-7.72 2.22-15.26 5-22.9 7.45-4.27 1.38-8.93 3.3-13.43 3.66-4.25.34-7.47-2-9.59-5.53a33.22 33.22 0 0 1 -3.55-9.5c-1.16-4.84-2.17-9.72-3.15-14.6-4-19.66-6.92-39.51-9.13-59.44-4.38-39.54-5.79-79.34-6.29-119.1-.12-9.65-.23-19.34-1.9-28.86-1.65-9.36-5-18.29-8.23-27.19-6.74-18.43-13.19-37-18.46-55.9-10.38-37.28-16.11-76.53-9.92-115.06a178.13 178.13 0 0 1 6.5-26.93c.3-.91-1.14-1.3-1.44-.39z"/><path d="m248.77 292.57a145.92 145.92 0 0 0 -5.94 21.52 3.39 3.39 0 0 1 -.65 1.68 3.26 3.26 0 0 1 -2.42.8 30.93 30.93 0 0 1 -15-3.72 46.05 46.05 0 0 1 -12.24-9.64 91.3 91.3 0 0 0 11-21.28c.11-.29.14-.74-.17-.8" fill="#fff"/><path d="m235.93 318.17a.82.82 0 0 0 0-1.64.82.82 0 0 0 0 1.64z" fill="#fff"/><path d="m248.14 292.21a72.24 72.24 0 0 0 -4.73 13.67c-.64 2.45-1.19 4.93-1.68 7.42-.24 1.16-.32 1.89-1.64 2a18.35 18.35 0 0 1 -3.23-.07c-9.3-.74-17.33-6.26-23.54-12.88l.19 1.44a92.47 92.47 0 0 0 7.14-12.36q1.5-3.07 2.77-6.27c.54-1.35 2.15-3.89.46-5-1.16-.74-2.23 1.1-1.08 1.85l.17.11-.49-.64c.17.49-.78 2.21-1 2.67-.36.9-.73 1.79-1.12 2.67q-1.23 2.81-2.64 5.53a93.33 93.33 0 0 1 -6.32 10.22 1.23 1.23 0 0 0 .19 1.45c5.27 5.65 11.69 10.4 19.2 12.55a30.88 30.88 0 0 0 5.8 1.08c1.68.16 3.8.41 5.39-.32s1.9-2.48 2.24-4.11c.43-2.1.91-4.19 1.41-6.27 1.15-4.77 2.67-9.45 3.8-14.22.18-.77-.95-1.33-1.33-.56z"/><path d="m666 239.53c-4.6 8.08-.45 19.46-6.14 26.81a6.75 6.75 0 0 0 -1.38 2.19c-.44 1.71.82 3 2.47 4 2.63 1.46 2.35 5.19 2.33 7.75 0 4.85 0 10.08 1.92 14.62a9.78 9.78 0 0 0 8.85 5.95c4 .26 8.19-1.73 12.17-.64 3.14.86 4.65 3.79 5.59 6.68s1.32 4.34 2.21 7.25a5.59 5.59 0 0 0 1.55 2.9c1.1.88 2.67.8 4.07.6a40.4 40.4 0 0 0 26.71-16.12 4.1 4.1 0 0 0 1-2.63 4.6 4.6 0 0 0 -1.45-2.48 55 55 0 0 1 -11.73-23.5c-3.21-13.57 2.93-31.32-7.51-42.69a18.13 18.13 0 0 0 -9.35-5.37 31.29 31.29 0 0 0 -18.16 1.69c-5.08 2-11.63 5.91-12.47 11.87" fill="#fff"/><path d="m264.36 242.93a39.68 39.68 0 0 0 7.27 17.32c1.27 1.72 2.65 4.25 1.09 5.7a9.93 9.93 0 0 1 -1.57.95c-2.23 1.41-2.26 4.59-2.13 7.23.29 5.63-.11 11.95-4.21 15.81s-10.29 3.88-15.73 2.86c-15-2.77-29.15-13.36-32.72-28.15-1.67-6.92-1-14.26 1-21.09 1.51-5.09 3.83-10.08 7.69-13.72 7-6.56 18-7.45 26.92-3.93 6.09 2.42 12 10.48 12.34 17" fill="#fff"/><path d="m217.05 264.46a38.34 38.34 0 0 1 6.41-29.62 22.71 22.71 0 0 1 28.69-7.4 19.72 19.72 0 0 1 11.39 15.49c.13 1 1.65 1.09 1.64 0-.12-13.73-15-21.6-27.33-19.64-11.46 1.82-19.17 12-22.07 22.61a36.53 36.53 0 0 0 -.11 18.94.72.72 0 0 0 1.38-.38z"/><path d="m263.64 242.93a37.64 37.64 0 0 0 4.24 13.53c1.14 2.06 2.72 3.86 3.82 5.92.48.91 1 2.17.06 2.92a11.9 11.9 0 0 0 -2.33 1.66c-2.52 3-1.33 7.73-1.46 11.29-.15 4.23-1.15 8.83-4.69 11.55-4 3.08-9.46 2.68-14.2 2.19-.93-.1-1.1 1.38-.22 1.61 4.35 1.13 9.29 1.22 13.44-.68s6.56-5.91 7.4-10.29a32.85 32.85 0 0 0 .49-6.64c0-2.11-.43-4.4.28-6.43s3.4-2.19 3.95-4.42-.94-4.19-2.1-5.79a43.56 43.56 0 0 1 -7.27-16.61c-.16-.78-1.51-.62-1.41.19z"/><path d="m262.41 253.94-.31.16a3.19 3.19 0 0 0 -.43.32 2 2 0 0 0 -.55.68 2.22 2.22 0 0 0 -.18.49 2.6 2.6 0 0 0 -.05.39c0 .13 0 .27.05.4a1.63 1.63 0 0 0 .53.91l.22.17a.79.79 0 0 0 .4.13 1.16 1.16 0 0 0 .68-.13 1.12 1.12 0 0 0 .22-.16 1.06 1.06 0 0 0 .2-.17 2 2 0 0 0 .39-.68 1.66 1.66 0 0 0 .1-.54 2.73 2.73 0 0 0 -.05-.4.83.83 0 0 0 0-.15 1.07 1.07 0 0 0 -.29-.49l-.22-.18a1.07 1.07 0 0 0 -1-.05 1 1 0 0 0 -.59.59 1.14 1.14 0 0 0 .05 1l-.11-.27a1.21 1.21 0 0 1 .05.18v-.3a1.09 1.09 0 0 1 0 .18v-.29a.85.85 0 0 1 0 .17l.11-.26a.83.83 0 0 1 -.09.16l.17-.22a.8.8 0 0 1 -.13.13l.22-.17h1.08l.21.17a.74.74 0 0 1 -.12-.13l.16.21a1 1 0 0 1 -.09-.15l.11.25a1.39 1.39 0 0 1 -.09-.35v.27a1.41 1.41 0 0 1 0-.29v.26a1.09 1.09 0 0 1 .08-.31l-.09.22a5 5 0 0 1 .49-.79l.08-.18a.57.57 0 0 0 0-.29.64.64 0 0 0 -.2-.41.76.76 0 0 0 -.88-.12z"/><path d="m239.55 257.1h.06-.05.08c.09 0-.13-.07 0 0l.08.05a.73.73 0 0 0 .09.08l.06.06c.06.06-.09-.14 0 0a1 1 0 0 1 .1.17.73.73 0 0 1 .05.09q-.06-.13 0-.06l.06.21a3.15 3.15 0 0 1 .09.42.43.43 0 0 1 0 .11s0 .13 0 .2v.23s0 .07 0 .1 0-.17 0 0v.2s-.07.16 0 0 0 0 0 0l1.06-.28c.1.09.13.11.09.07l.07.09s-.07-.14 0 0 0 0 0 0c0 .15 0 .19 0 .12a0 0 0 0 1 0 0s-.06.23 0 .09 0 .07 0 .07 0 0-.08.09c.09-.09-.17.11-.05 0a.81.81 0 0 0 -.82-1.4 1.41 1.41 0 0 0 -.45.49 1.53 1.53 0 0 0 -.16.66 1.42 1.42 0 0 0 .62 1.12.78.78 0 0 0 1.06-.28 2.8 2.8 0 0 0 .26-1.37 4.71 4.71 0 0 0 -.25-1.24 2.4 2.4 0 0 0 -.85-1.2 1.65 1.65 0 0 0 -1.36-.26.7.7 0 1 0 .37 1.36z"/><path d="m665.34 239.14c-2.08 3.67-2.52 7.88-2.79 12s-.27 8.74-2.26 12.56c-.93 1.79-3 3.32-3 5.47s1.66 3.26 3.22 4.32 1.65 3.22 1.65 5c0 2.26-.07 4.52 0 6.78.2 4.46.82 9.73 4 13.17 2.93 3.21 7.32 3.85 11.42 3.28 2.58-.37 5.3-1.15 7.9-.58 2.29.5 3.7 2.24 4.61 4.3a49.9 49.9 0 0 1 2 6.2c.6 2 1 4.69 2.66 6.14s3.94 1.09 5.9.77a38.87 38.87 0 0 0 6.71-1.72 42.15 42.15 0 0 0 11.73-6.38 41.52 41.52 0 0 0 4.91-4.46 20.68 20.68 0 0 0 4.08-5.38c1-2.25-.45-3.85-1.84-5.47a45.92 45.92 0 0 1 -4.44-6.19 56.11 56.11 0 0 1 -6-13.88 49.22 49.22 0 0 1 -1.66-12.61c-.13-8.33.82-17.14-2.1-25.12a22 22 0 0 0 -7.04-10.08 22.28 22.28 0 0 0 -13.49-4.12 34.34 34.34 0 0 0 -14.08 3c-3.58 1.57-7.11 3.74-9.41 7a11.32 11.32 0 0 0 -2 5c-.14 1 1.37 1.47 1.56.43.69-3.83 3.73-6.59 6.9-8.57a32.7 32.7 0 0 1 11.61-4.4c4.67-.83 9.9-.72 14.3 1.22a18.46 18.46 0 0 1 9 8.87c3.47 7.08 2.9 15.43 2.82 23.09a75.16 75.16 0 0 0 .55 11.52 51.73 51.73 0 0 0 3.73 12.58 53.26 53.26 0 0 0 6.92 11.94c.69.89 1.42 1.73 2.14 2.58a2.24 2.24 0 0 1 .23 3.18 32 32 0 0 1 -4.21 5c-5.89 5.85-14.2 10.34-22.57 11.07a3.19 3.19 0 0 1 -2.94-.81 9.61 9.61 0 0 1 -1.25-3.27c-.61-2-1.2-4.11-1.88-6.14-1.24-3.7-3.43-7-7.57-7.53-4.54-.62-9 1.74-13.49.44-4.35-1.25-6-5.19-6.8-9.32-.79-4.36-.19-8.73-.61-13.09a7.3 7.3 0 0 0 -1.65-4.42c-1.16-1.23-4.13-2-2.9-4.24.47-.85 1.19-1.56 1.7-2.39a15.27 15.27 0 0 0 1.25-2.61 22.47 22.47 0 0 0 1.21-5.43c.47-4.09.21-8.24.89-12.3a18.08 18.08 0 0 1 1.83-5.59c.47-.86-.84-1.63-1.32-.77z"/><path d="m670.75 260.1-.12.16.06-.06-.16.13.09-.06-.21.09h.09a1.72 1.72 0 0 0 .29-.11l-.22.09h.15-.25a.43.43 0 0 1 .16 0h-.25l.16.05-.23-.1.15.09-.2-.15a1 1 0 0 1 .18.17l-.16-.2a1.87 1.87 0 0 1 .17.31l-.1-.25a2 2 0 0 1 .07.26v-.28a1 1 0 0 1 0 .25v-.28a1.05 1.05 0 0 1 0 .19l.11-.25a1 1 0 0 1 -.09.15l.16-.21-.09.1.21-.17-.09.06.25-.11h-.11.29-.16.28-.14l.26.11-.12-.07.22.17-.09-.09.17.22-.26-.34.16.22v-.06l.1.24a1.1 1.1 0 0 0 -.26-.44l-.2-.16a.85.85 0 0 0 -.38-.12.57.57 0 0 0 -.26 0 .59.59 0 0 0 -.26.07.61.61 0 0 0 -.22.13.77.77 0 0 0 -.26.28 1.2 1.2 0 0 0 .17 1.52 1.56 1.56 0 0 0 .73.44 1.79 1.79 0 0 0 .89 0 1.64 1.64 0 0 0 .88-.69 1.3 1.3 0 0 0 .18-.42.35.35 0 0 0 0-.11 2.45 2.45 0 0 0 0-.38 1.8 1.8 0 0 0 -.05-.46 2 2 0 0 0 -.17-.47 1.62 1.62 0 0 0 -.1-.18 3 3 0 0 0 -.33-.38 1.76 1.76 0 0 0 -.82-.43 1.59 1.59 0 0 0 -.72 0 1.72 1.72 0 0 0 -.42.18 1.2 1.2 0 0 0 -.5.67.86.86 0 0 0 0 .42v.21a.64.64 0 0 0 .13.26.74.74 0 0 0 .4.27.94.94 0 0 0 .41 0 .51.51 0 0 0 .26-.14.58.58 0 0 0 .2-.21z"/><path d="m668 255.31a1.35 1.35 0 0 0 .82 0c.26-.06-.26 0 0 0a1.62 1.62 0 0 1 .22 0h.08c.15 0 .1 0-.14 0l-.21-.09a1.47 1.47 0 0 0 .74.2l.48.05-.41-.06a14.24 14.24 0 0 1 1.42.28l-.43-.18h.07a1.81 1.81 0 1 0 1.39-3.31 10.6 10.6 0 0 0 -3.85 0 1.85 1.85 0 0 0 -1.1.84 1.9 1.9 0 0 0 -.21 1.17 1.81 1.81 0 0 0 1.8 1.59 16.9 16.9 0 0 1 3.41.06l-.49-.07c.58.09 1.16.25 1.74.29l-.93-3.43-.33.2a1.68 1.68 0 0 0 .4 3l.37.13a1.86 1.86 0 0 0 1.42-.19 1.84 1.84 0 0 0 .85-1.1 1.89 1.89 0 0 0 -1.29-2.27 7.25 7.25 0 0 0 -1.55-.23c-.4-.05-.8-.1-1.21-.12a17.32 17.32 0 0 0 -2.39 0l.49 3.61h.09l-.49.07a13.2 13.2 0 0 1 1.4-.11c.47 0 .92.05 1.39.07l-.48-3.55h-.07l.47-.06a9.44 9.44 0 0 0 -2.24.3 1.82 1.82 0 0 0 -.85.51c.21-.23.14-.13 0 0l-.19.13a1.76 1.76 0 0 0 -.91 1.33 1 1 0 0 0 .7.92z"/><path d="m696.71 257.43a2.52 2.52 0 0 0 -1.86 1.91 2.37 2.37 0 0 0 0 1.68 1.13 1.13 0 0 0 1 .59 1 1 0 0 0 1-.72 1.09 1.09 0 0 0 -.5-1.25 1.27 1.27 0 0 0 -1.49.17.85.85 0 0 0 -.17.92.86.86 0 0 0 .76.52 1.7 1.7 0 0 0 .45-.08h-.23.14-.23.08l-.21-.09h.06l-.17-.14s0 0 0 .05l-.13-.17v.06l-.08-.21s0 0 0 .07v-.23-.23a.15.15 0 0 1 0 .07l.08-.21.13-.17.17-.14.2-.09h-.08.23-.06.22-.08l.2.09.17.13.13.17-.06-.1.09.2a.23.23 0 0 1 0-.11v.22a2.84 2.84 0 0 1 0-.77v.22a3.18 3.18 0 0 1 .18-.69l-.08.19a1.46 1.46 0 0 1 .17-.3v-.06c0-.08-.11.12-.05.06l.12-.13.11-.1s-.15.11-.06.05l.07-.05h.06s.14-.07 0 0 0 0 0 0h.09a.7.7 0 1 0 -.37-1.36z"/><path d="m670.23 280.07a1 1 0 0 0 1.1 1 2.11 2.11 0 0 0 1-.56 16.73 16.73 0 0 0 1.42-1.37c.44-.48.86-1 1.27-1.49.09-.12.18-.23.26-.35l.08-.1c-.09.12-.12.15-.06.08l.29-.36a2.48 2.48 0 0 0 .79-1.57 1.33 1.33 0 0 0 -.64-1.11 1.36 1.36 0 0 0 -1.31 0c-.63.3-.86 1.19-1.21 1.76s-.59.94-.91 1.39c-.15.22-.31.44-.47.65l-.13.17c-.12.16.06-.08 0 0s-.15.21-.24.31c-.21.26-.44.52-.64.79l-.1.13c-.16.21.06-.07 0 0l.07-.06h.11l-.21.08c-.21.17-.23.19-.08.06h.79l.09.06a.77.77 0 0 0 -1.29.54z"/><path d="m685.18 252.23a37.5 37.5 0 0 0 5.2 10.1 7.57 7.57 0 0 1 5.24-8.93 5.27 5.27 0 0 1 4.15.54 6 6 0 0 1 2.23 5 11 11 0 0 1 -4.61 8.9 40.26 40.26 0 0 0 18.5 11.27c-.53-.15 0-5.61.08-6.23a56.18 56.18 0 0 1 1.16-6.7c1-4.39 2.32-8.7 3.21-13.11 2.24-11.16-1.84-23.59-12.94-28.16-6.91-2.85-14.64-2.15-21.79-.77s-14.51 4-19.68 9.44c-.89.94-1.67 2.57-.65 3.37a2.39 2.39 0 0 0 1.17.38c6.08.8 12.28-.51 18.36.23a10.46 10.46 0 0 0 .36 13.63"/><path d="m684.51 252.41a39.25 39.25 0 0 0 5.1 10.37.9.9 0 0 0 1.64-.69 6.6 6.6 0 0 1 1.56-5.8c1.47-1.66 4.2-2.84 6.27-1.55s2.09 4.2 1.64 6.24a9.48 9.48 0 0 1 -3.91 5.89 1.18 1.18 0 0 0 -.23 1.81c4.81 5.65 11.92 9.6 19 11.6a1.19 1.19 0 0 0 .91-2.16c.56.34.28.54.38.3a3.81 3.81 0 0 0 0-.95c0-.73 0-1.46.1-2.2.11-1.57.26-3.14.51-4.7.87-5.41 2.6-10.63 3.77-16 1.64-7.5 1-15.64-3.22-22.23-4.85-7.55-13.34-10.69-22.07-10.57a60.77 60.77 0 0 0 -14.56 2.13 37.79 37.79 0 0 0 -12.4 5.51c-1.82 1.3-4.1 2.92-5 5s.26 3.83 2.48 4.12c6.1.79 12.25-.47 18.36.21l-.83-2a11.68 11.68 0 0 0 .37 15.28c1 1.1 2.66-.54 1.64-1.64a9.3 9.3 0 0 1 -.35-12 1.19 1.19 0 0 0 -.83-2c-4.94-.57-9.89.13-14.84 0a14.15 14.15 0 0 1 -3.51-.26c-1-.33.12-1.52.6-2a24.69 24.69 0 0 1 5.16-4 39.83 39.83 0 0 1 11.75-4.39 54.88 54.88 0 0 1 13.74-1.56c8.11.26 15.51 3.85 19.33 11.2a25 25 0 0 1 2.68 10 38.17 38.17 0 0 1 -1.5 11.63c-1.32 5.3-2.89 10.55-3.46 16-.13 1.27-.24 2.55-.29 3.82 0 1-.24 2.67.79 3.31l.91-2.16a39.82 39.82 0 0 1 -9.73-4.27 47.75 47.75 0 0 1 -8.26-6.68v1.63a12.64 12.64 0 0 0 4.74-8.17c.39-2.94-.37-6.5-3.34-7.83-5.93-2.64-11.5 4.39-10.09 9.88l1.64-.69a37.4 37.4 0 0 1 -5.31-9.83c-.3-.83-1.62-.49-1.34.37z"/><path d="m239.87 263.56a5.88 5.88 0 1 1 5.09-7.32 12.83 12.83 0 0 0 1.77-8.07c-.24-2.11-.95-4.47.3-6.19.7-1 1.89-1.48 2.83-2.24a6.31 6.31 0 0 0 1.69-7.38 11.51 11.51 0 0 0 5.31-1.2 3.85 3.85 0 0 0 1.59-1.25 3.11 3.11 0 0 0 -.45-3.55 7.91 7.91 0 0 0 -3.18-2.05c-7.34-3-15.95-3.68-23.15-.34a33.59 33.59 0 0 0 -8.64 6.15 40.67 40.67 0 0 0 -6.21 7.15 31.15 31.15 0 0 0 -4.65 22.61c1.23 6.74 4.67 12.85 8.15 18.75a7.61 7.61 0 0 1 1.26 3.05c.06.56 0 1.24.52 1.54s1.25-.12 1.73-.56c5.92-5.48 11-12.28 15.82-18.77"/><path d="m239.87 262.86c-4.07.11-7-4.31-4.64-7.84a4.94 4.94 0 0 1 8.82 1.47 1 1 0 0 0 1.73.23 14.34 14.34 0 0 0 2-7.08c0-2.15-1.34-5.39.2-7.23a18.13 18.13 0 0 1 2.62-1.94 7 7 0 0 0 1.81-2.32 7.53 7.53 0 0 0 .22-6.08l-1.07 1.4c3.54.11 10-1.73 8.12-6.52-.76-2-2.69-3-4.54-3.76a34.39 34.39 0 0 0 -7-2.07 29.31 29.31 0 0 0 -14 .64 31.5 31.5 0 0 0 -11.93 7.52 37.5 37.5 0 0 0 -8.63 11.37 32.9 32.9 0 0 0 -3.07 13.45 35.3 35.3 0 0 0 2.95 14 67 67 0 0 0 3.29 6.7c.61 1.12 1.25 2.22 1.89 3.32a13.23 13.23 0 0 1 1.71 3.32c.25 1.05.11 2.2 1.18 2.85a2.48 2.48 0 0 0 2.79-.43 44.15 44.15 0 0 0 5.79-5.89 136.11 136.11 0 0 0 10.35-13.57c.57-.85-.79-1.92-1.44-1.11-2.69 3.37-5.35 6.77-8.1 10.1-1.34 1.61-2.71 3.19-4.14 4.72-.71.76-1.43 1.51-2.17 2.23l-1.11 1.08a5.11 5.11 0 0 1 -.48.45c-.41.29-.1.27-.22 0a9.28 9.28 0 0 1 -.22-1.3 9.68 9.68 0 0 0 -.41-1.06 31.41 31.41 0 0 0 -1.6-2.82c-1.09-1.88-2.16-3.77-3.14-5.7a41.29 41.29 0 0 1 -4.2-12 30 30 0 0 1 6-22.93c5-6.44 12-12.15 20.41-13a30.88 30.88 0 0 1 13.53 1.85c1.57.57 4.92 1.64 4.52 3.9-.19 1-1.58 1.51-2.45 1.82a12.54 12.54 0 0 1 -3.64.64 1.12 1.12 0 0 0 -1 1.66 5.24 5.24 0 0 1 -.86 5.51c-1.35 1.52-3.36 2-4.1 4.08s0 4.07.16 6.08a12.12 12.12 0 0 1 -1.65 7.18l1.72.22a6.84 6.84 0 0 0 -12.07-2.21 6.5 6.5 0 0 0 -.43 7.19 6.8 6.8 0 0 0 6.5 3.28c.86-.09.91-1.41 0-1.39z"/><path d="m211.31 245.56a12.65 12.65 0 0 0 -1.66-9.84 21.18 21.18 0 0 0 -7.46-6.92c-7.23-4.25-16-5.5-24.3-4.32a57.23 57.23 0 0 0 -23.16 9.29c-3.24 2.14-6.33 4.53-9.83 6.22-1.85.89-3.86 1.62-5.3 3.09s-2.08 4-.74 5.57c1.69 2 4.85 1 7.2 0a84.88 84.88 0 0 0 7.87-3.93c2.4-1.42 4.67-3.07 7.11-4.43 8.3-4.64 18.09-5.64 27.58-6.15 4.2-.22 8.49-.36 12.54.78s7.91 3.73 9.53 7.61a27.28 27.28 0 0 0 -14-9 43.89 43.89 0 0 0 -16.78-1.05 62 62 0 0 0 -40.33 21.43c-1.14 1.36-2.29 3.08-1.78 4.78s2.74 2.62 4.58 2.27a12.57 12.57 0 0 0 4.87-2.65 100.92 100.92 0 0 1 53.84-19.59c3.94-.23 6.24 3.89 9.21 6.5-5-2.26-8.51-6.44-14-6.59-10.2-.28-21.06-.4-29.74 5-4.13 2.55-7.48 6.18-10.64 9.87q-4 4.65-7.75 9.52c-1.41 1.83-2.74 4.61-1.06 6.2 1.14 1.07 3 .78 4.45.26 5.79-2.05 10.39-6.43 15.18-10.28a101.77 101.77 0 0 1 26.41-15.35 30.49 30.49 0 0 1 9.88-2.48 12.77 12.77 0 0 1 9.43 3.22 51.35 51.35 0 0 0 -33.16 5.28 58.23 58.23 0 0 0 -23.72 23.95c-.94 1.76-1.68 4.21-.17 5.51s3.67.29 5.26-.77c10.59-7 18.83-17 28.09-25.67 3.57-3.35 8.69-2.16 13.23-4 3.18-1.3 5.53-6.28 8.76-5.11a73.73 73.73 0 0 0 -34.86 24.22c-2.07 2.62-4.06 5.78-3.47 9.07a1.94 1.94 0 0 0 .48 1.09c.7.7 1.88.28 2.75-.21 13.59-7.8 20.23-23.75 32-34a52.44 52.44 0 0 0 -10.65 13.86c1.89.48 3.66-1 5-2.44a93.09 93.09 0 0 0 9-11.15c.3-.43-.12-1.34-.33-.87"/><path d="m212 245.76c3.61-12.24-10.72-20.31-20.66-22.17-11.8-2.2-23.74 1.12-33.95 7.06-2.68 1.56-5.2 3.35-7.77 5.08a80 80 0 0 1 -8 4.41c-2.32 1.18-4.37 3-4.73 5.69a4.48 4.48 0 0 0 3.49 5.1c2.39.51 4.79-.55 6.91-1.52a73.91 73.91 0 0 0 8.43-4.37 80 80 0 0 1 8.21-4.89 42.39 42.39 0 0 1 8.64-2.89 92.9 92.9 0 0 1 20.71-2.07c6.27 0 13.53 1.61 16.32 7.94l1.93-1.5c-7.63-9.5-20.58-11.71-32.08-10.37a63.86 63.86 0 0 0 -30.21 11.8 60.22 60.22 0 0 0 -6.32 5.29 38 38 0 0 0 -5.41 6.07c-1.39 2.09-1.77 4.88.33 6.65a6.19 6.19 0 0 0 6.64.53c2.54-1.17 4.72-3.21 7-4.77s4.91-3.16 7.47-4.57a99.55 99.55 0 0 1 35.68-11.68c1.69-.21 3.39-.37 5.1-.5a6.12 6.12 0 0 1 3.66.48c2.36 1.31 3.93 3.8 5.91 5.58l1.58-2c-4.11-1.94-7.53-5.38-12-6.45a35.57 35.57 0 0 0 -7.65-.45c-2.55 0-5.1 0-7.64.21a42.06 42.06 0 0 0 -14.78 3.45c-4.85 2.24-8.77 5.91-12.29 9.86-1.89 2.12-3.71 4.29-5.5 6.49a50.16 50.16 0 0 0 -4.93 6.44c-1 1.79-1.72 4.15-.39 6s4 1.87 6 1.18c4.87-1.64 8.91-5 12.81-8.21a118.2 118.2 0 0 1 13.23-9.66 98.35 98.35 0 0 1 16.64-8.25c5.43-2.07 12.45-3.71 17.19.75l1.25-2.14a52.87 52.87 0 0 0 -30.65 3.64 57.69 57.69 0 0 0 -22.33 17.76 62.63 62.63 0 0 0 -4.13 6.09c-1.1 1.85-2.33 3.82-2.48 6a3.92 3.92 0 0 0 3.41 4.32c2.3.25 4.37-1.24 6.15-2.5 8.49-6 15.51-13.72 22.85-21 1.92-1.9 3.9-4.44 6.51-5.39 2.42-.89 5.07-.91 7.58-1.43a11.73 11.73 0 0 0 5.93-3c1.21-1.11 2.89-3.42 4.76-2.83v-2.52a74.9 74.9 0 0 0 -35.87 25.06c-2.15 2.79-4.48 6.64-3.35 10.33 1.27 4.17 6 .86 8.09-.6 5.57-4 10-9.2 14.11-14.56 4.79-6.18 9.35-12.62 15.26-17.8l-1.93-1.93a54.4 54.4 0 0 0 -10.9 14.15 1.39 1.39 0 0 0 .83 2c2.3.43 4.17-.67 5.78-2.23a64.66 64.66 0 0 0 5.25-6c.79-1 1.57-2 2.33-3a19.23 19.23 0 0 0 2.21-3.18c.7-1.56-1.11-4.15-2.58-2.37-1.12 1.36.82 3.32 1.95 2l.1-.13-1 .41h.11l-1-.4c-.36-.41-.2-.44-.62.06-.19.24-.35.51-.53.76q-.74 1-1.5 2c-1 1.32-2 2.6-3.1 3.86s-2 2.33-3.07 3.45c-.9.94-2.19 2.36-3.65 2.09l.83 2a51.86 51.86 0 0 1 10.44-13.61c1.3-1.21-.62-3.08-1.93-1.93-9.43 8.29-15.29 19.73-24.41 28.3a35.16 35.16 0 0 1 -7.36 5.54c-.6.31-1 .62-1.23-.07a4.88 4.88 0 0 1 .18-2.51 14.8 14.8 0 0 1 2.64-4.85 69.58 69.58 0 0 1 14.52-14.1 72.82 72.82 0 0 1 20.1-10.24 1.32 1.32 0 0 0 0-2.52c-3.68-1.14-5.93 2.67-8.48 4.52-1.67 1.21-3.9 1.47-5.88 1.75a23.32 23.32 0 0 0 -6.12 1.38c-2.1.92-3.66 2.64-5.27 4.22-1.76 1.72-3.49 3.47-5.22 5.22-3.45 3.5-6.89 7-10.55 10.3-1.84 1.65-3.73 3.26-5.7 4.76-1.76 1.33-3.75 3.13-5.9 3.76-2.7.8-2.14-2.09-1.4-3.62a47.82 47.82 0 0 1 3.45-5.75 56.12 56.12 0 0 1 19.76-18 50.14 50.14 0 0 1 32.33-5.27c1.17.22 2.25-1.19 1.24-2.14-7.83-7.36-19.67-1.8-27.76 2.11a102.24 102.24 0 0 0 -13.44 7.81c-4.14 2.85-7.89 6.16-11.86 9.23a41.79 41.79 0 0 1 -6 4c-1.23.65-5.29 3-6.44 1.21s1.54-4.4 2.42-5.53q2.55-3.26 5.21-6.42c3.26-3.87 6.61-7.86 10.84-10.7a32.06 32.06 0 0 1 13.42-4.86 85.83 85.83 0 0 1 16.73-.52c5 .26 8.79 4.38 13.1 6.4 1.25.58 2.76-1 1.58-2-3.22-2.88-5.69-7.12-10.56-6.84a98.75 98.75 0 0 0 -16.58 2.48 102.26 102.26 0 0 0 -30.77 12.7c-2.3 1.42-4.53 3-6.71 4.55-1.77 1.31-4.3 3.45-6.62 2.18-3.85-2.12 5.77-10.07 7.5-11.55a61.46 61.46 0 0 1 27.67-13.32c12.06-2.41 26.44-1.4 34.7 8.87 1 1.18 2.45-.32 1.94-1.49-2-4.51-6.51-7.32-11.17-8.41-5.7-1.33-11.83-.7-17.6-.2a66.38 66.38 0 0 0 -16.41 3.16 40.61 40.61 0 0 0 -7.37 3.46c-2.6 1.56-5.06 3.32-7.73 4.74a45.17 45.17 0 0 1 -7.72 3.53c-1.93.59-4.92.53-4.29-2.33s3.87-3.7 6.06-4.76a55.3 55.3 0 0 0 7.23-4.46c9.3-6.42 19.77-11.42 31.3-11.37a35.2 35.2 0 0 1 17.95 4.72c5.26 3.15 10 8.86 8.59 15.4a.76.76 0 0 0 1.46.4z"/><path d="m258.84 250.76a10.09 10.09 0 0 1 .72-.74c.09-.08-.11.08 0 0l.1-.07.22-.13a1.19 1.19 0 0 1 .22-.12l.12-.06h.06q.09 0-.06 0a6.83 6.83 0 0 1 1.16-.32l.31-.05h.16l.66-.07a.94.94 0 1 0 -.26-1.85 9.42 9.42 0 0 0 -2.8.78 3.34 3.34 0 0 0 -1.82 1.94.72.72 0 0 0 1.2.7z"/><path d="m262.16 271.63-3.25-1.16a2.62 2.62 0 0 0 -.87-.2 2.16 2.16 0 0 0 -.88.25 1.74 1.74 0 0 0 -.78.61 1.65 1.65 0 0 0 -.19.93 5.73 5.73 0 0 0 1.88 4.14c.44.38 1.08.71 1.59.42a1.52 1.52 0 0 0 .58-.85 15.83 15.83 0 0 0 1-4.13"/><path d="m262.52 271c-.7-.32-1.4-.64-2.1-.93a10.79 10.79 0 0 0 -1.95-.76 3.27 3.27 0 0 0 -2.29.51 2.48 2.48 0 0 0 -1.12 2.22 6.77 6.77 0 0 0 1.09 3.68c.76 1.15 2.2 2.65 3.74 2.08a2.72 2.72 0 0 0 1.55-1.9 17.25 17.25 0 0 0 .55-2c.07-.33.13-.66.17-1a2.66 2.66 0 0 0 -.11-1.56 1 1 0 0 0 -1.09-.51c-.57.17-.75.74-.9 1.24-.19.66-.29 1.35-.49 2-.1.34-.21.67-.34 1a1.43 1.43 0 0 0 -.08.22l-.09.18c0 .05-.2.27 0 .07 0 0-.17.11 0 0s.12-.05 0 0h.27-.13c.14 0 0 0-.09 0l-.17-.11c-.16-.07.18.18 0 0l-.18-.17c-.11-.1-.21-.21-.31-.32s-.27-.34-.13-.15a5.41 5.41 0 0 1 -.48-.76 1.51 1.51 0 0 1 -.11-.22c0-.09-.08-.2 0 0-.06-.16-.12-.31-.17-.47a4.21 4.21 0 0 1 -.12-.48c0-.07 0-.13 0-.2-.05-.27 0 .16 0-.09s0-.34 0-.51 0-.14 0-.21c0 .21 0-.09 0-.13-.06.19 0 0 0 0s-.06.08 0 0 .05-.05 0 0a2.43 2.43 0 0 1 .44-.26.7.7 0 0 1 .65-.05l1.16.34c.79.24 1.58.45 2.37.65a.71.71 0 0 0 .84-.41.7.7 0 0 0 -.29-.88z"/><path d="m192 300.38c26.88.44 54.86 2.12 78.33 15.22 2.85 1.59 5.73 3.46 7.3 6.33 1.35 2.47 1.57 5.38 1.58 8.2a67.79 67.79 0 0 1 -10.62 36.49c-4.48 7-10.26 13.16-14.17 20.49-5.08 9.54-6.74 20.63-6.28 31.44.14 3.15.43 6.37-.45 9.4-3 10.17-13.9 12-23 12.53-29.67 1.89-63.64-9-85.16-29.92a17.58 17.58 0 0 1 -4.59-6.32c-2.37-6.49 4.55-13.61 8.15-18.28 5.3-6.88 11.09-13.37 16.13-20.45 7.55-10.63 12.28-22.94 14.83-35.71 2.12-10.61-.62-27.11 17.91-29.42" fill="#18c4ff"/><path d="m192 301.05a.67.67 0 0 0 0-1.33.67.67 0 0 0 0 1.33z"/><path d="m261.7 311.39c-20.12-8.65-42.83-10.41-65-10.91a38.57 38.57 0 0 0 -8.48 14c-5.29 15.26-3.44 34.74 14 40.39 7.09 2.3 14.84 1.84 22 0a38.47 38.47 0 0 0 14.3-6.64c8.07-6.34 12.06-16.38 16.52-25.62a70.16 70.16 0 0 1 6.66-11.22z" fill="#fff"/><path d="m196 301.73c3.42.08 6.84.16 10.25.33s6.84.51 10.23.43a.88.88 0 0 0 .23-1.73 43.53 43.53 0 0 0 -10.26-.79c-3.48 0-7 .19-10.45.33a.72.72 0 0 0 0 1.43z"/><path d="m241.29 304.68a37.22 37.22 0 0 0 10.33 4.32c1.82.52 3.65 1 5.47 1.48.9.26 1.81.49 2.71.77s1.85.72 2.8 1a.89.89 0 0 0 .68-1.61 21 21 0 0 0 -5.1-2.14c-1.79-.56-3.64-1-5.48-1.4a37.37 37.37 0 0 1 -10.7-3.66.72.72 0 0 0 -.72 1.24z"/><path d="m270.52 317.39c-9.22 11-13.7 27.55-13.86 41.92s3.21 28.55 7.26 42.34c4.14 14.12 9.12 28.22 17.58 40.26a37.68 37.68 0 0 0 8.11 8.83c9 6.66 21.69 6.41 31.95 2s18.5-12.47 26.06-20.7a322.41 322.41 0 0 0 25.88-32.06c2.06-2.9 4.16-5.93 7.22-7.74 3.4-2 7.51-2.24 11.31-3.3s7.77-3.52 8.35-7.42c.24-1.64-.54-3.69-2.18-3.88a4.12 4.12 0 0 0 -.86-8.12c1.53-1.73 3.16-3.72 3-6s-3.34-4.18-4.83-2.41c2.16.15 3.73-2.54 3-4.59s-3-3.22-5.14-3.32a16.74 16.74 0 0 0 -6.31 1.38l-9.32 3.38a9.5 9.5 0 0 0 3.92-3.41c.83-1.55.53-3.84-1.06-4.59a4 4 0 0 0 -1.68-.3c-5.09-.07-9.67 3.29-12.79 7.31s-1.54 6-4.23 10.35c-2.3 3.66-8.69 9.78-11.86 12.71a97.18 97.18 0 0 1 -14 10.18l-21.34 13.65c-8.49-21.19-12.14-45.64-24.81-69.66-6.31-12-13.53-17.37-19.37-16.81" fill="#fff"/><path d="m393.4 352.42c-2.72-.25-5.21.72-7.74 1.58-2.73.94-5.45 1.9-8.18 2.87l.83 2c2.63-1.53 5.57-3.78 4.82-7.23-.79-3.68-5-3.42-7.91-2.61a19.1 19.1 0 0 0 -8.85 5.91 15.28 15.28 0 0 0 -2.84 4.28 32.52 32.52 0 0 0 -1.11 4.12c-.81 3-2.86 5.41-4.93 7.68s-4.43 4.6-6.74 6.79c-5.77 5.46-12.44 9.6-19.09 13.9q-8.73 5.65-17.49 11.29l1.54.62c-5.33-13.34-8.65-27.39-13.07-41.05a201 201 0 0 0 -8-21c-3-6.58-6.27-13.3-11.24-18.63-3.27-3.49-7.83-6.9-12.88-6.47-1.29.11-1.3 2.14 0 2 4.31-.36 8.08 2.48 10.91 5.43 4.86 5.07 8.06 11.54 11 17.86 6 13.13 9.94 27.05 14 40.86 2.15 7.28 4.45 14.52 7.26 21.58a1.06 1.06 0 0 0 1.54.63q7-4.5 14.08-9c6-3.8 12.13-7.43 17.74-11.78a93.8 93.8 0 0 0 13.1-12.57 19.87 19.87 0 0 0 4.29-6.91c.39-1.27.55-2.59.95-3.85a11.83 11.83 0 0 1 2.61-4.22c2.43-2.76 5.64-5.14 9.36-5.69.9-.13 2.38-.35 3.13.3a2.28 2.28 0 0 1 .54 2c-.31 1.86-2.29 3-3.76 3.83-1 .6-.35 2.39.82 1.95 2.56-.94 5.12-1.88 7.67-2.86s5-2.08 7.68-2.21a.72.72 0 0 0 0-1.44z"/><path d="m270 316.89c-5.89 6.36-9.52 14.72-11.77 23a81.62 81.62 0 0 0 -2.45 27.53c.79 10.63 3.17 21.07 6.08 31.3a198.72 198.72 0 0 0 9.94 28.28 97.06 97.06 0 0 0 7.25 13.24 45.3 45.3 0 0 0 9.13 10.76c6.74 5.37 15.6 6.82 24 5.56 9.13-1.37 17.23-6.13 24.22-12 7.57-6.35 14.16-13.92 20.54-21.44 6.67-7.87 12.75-16.14 18.84-24.46a20.61 20.61 0 0 1 4.82-5.08 19 19 0 0 1 6.76-2.54c4.08-.89 8.31-1.62 11.45-4.61a8.47 8.47 0 0 0 2.58-4.66c.22-1.28-1.74-1.83-2-.54-.73 4.14-5 6.07-8.67 7-4.29 1-8.7 1.47-12.27 4.32s-6 7.08-8.62 10.72q-4.47 6.14-9.24 12.05a265.27 265.27 0 0 1 -19.34 21.83c-6.46 6.43-13.82 12.47-22.51 15.56-7.73 2.75-16.78 3.27-24.36-.29-8.42-3.95-13.66-12.75-17.81-20.69a155.28 155.28 0 0 1 -10.57-26.96 207.3 207.3 0 0 1 -7.11-29.57c-2.64-17.74-.8-36.85 8.78-52.4 1.07-1.73 2.22-3.42 3.43-5.05.49-.65-.58-1.45-1.12-.86z"/><path d="m318 412.05c-.46-1.59-.94-3.16-1.39-4.75-.22-.78-.47-1.55-.7-2.33a17.5 17.5 0 0 0 -.76-2.46.9.9 0 0 0 -1.67.45 14.66 14.66 0 0 0 .6 2.52c.24.8.47 1.61.75 2.41.56 1.59 1.17 3.17 1.88 4.71.34.73 1.5.21 1.29-.55z"/><path d="m391.32 363.32a33.64 33.64 0 0 0 4-1.42 20.34 20.34 0 0 0 2-.95 4.78 4.78 0 0 0 1.92-1.41c.31-.55-.07-1.47-.8-1.39a5.59 5.59 0 0 0 -2.07 1c-.59.35-1.17.7-1.77 1a25.67 25.67 0 0 1 -3.7 1.67.75.75 0 0 0 .4 1.44z"/><path d="m392.78 371.76a4.13 4.13 0 0 0 2.35-.29 16.63 16.63 0 0 0 2-1 8.85 8.85 0 0 0 3.29-2.87.94.94 0 0 0 -.24-1.2.93.93 0 0 0 -1.23.07 9.73 9.73 0 0 1 -2.66 2.35l-1.58 1a3 3 0 0 1 -1.79.59.69.69 0 0 0 -.18 1.35z"/><path d="m394 379.91c1.52-.58 3.1-1.1 4.56-1.83a7.93 7.93 0 0 0 1.68-1.12 3.56 3.56 0 0 0 1.11-1.83.8.8 0 0 0 -.46-.93.78.78 0 0 0 -1 .32c-.11.18-.3.54-.36.63a4.61 4.61 0 0 1 -.63.62 6.92 6.92 0 0 1 -1.42.9c-1.33.67-2.7 1.28-4.05 1.93-.72.35-.21 1.6.55 1.31z"/><path d="m239.76 169.93q-7.14 5.19-14.22 10.42c-4.28 3.16-8.7 6.26-12.37 10.14s-6.32 8.61-8.85 13.33q-4.17 7.78-8.33 15.56l-16.89 31.55-8.33 15.56c-1.24 2.32-2.85 4.73-3.17 7.4-.3 2.48.83 4.71 2.19 6.7a59.86 59.86 0 0 0 24.47 20.55c1.35.61 2.53-1.39 1.17-2a58.09 58.09 0 0 1 -21.77-17.14c-1.4-1.8-3.13-3.85-3.66-6.12-.61-2.67 1.25-5.27 2.44-7.5l8.1-15.12 16.08-30 8-14.9c2.54-4.73 4.9-9.7 8.23-14 3.55-4.54 8.2-8.08 12.73-11.58q7.55-5.84 15.05-11.73c.62-.49-.21-1.58-.85-1.11z"/><path d="m230.08 147.33a9.85 9.85 0 0 1 3.76-2.91 10.53 10.53 0 0 1 4.57-.88c1.06 0 1-1.53 0-1.62a10.87 10.87 0 0 0 -9.42 4.57c-.46.63.6 1.46 1.09.84z"/><path d="m233.52 154.15a3.17 3.17 0 0 0 .89-.66 6.57 6.57 0 0 1 .67-.51 7.63 7.63 0 0 1 1.66-.9 8.13 8.13 0 0 1 3.72-.5.85.85 0 0 0 .86-.86.88.88 0 0 0 -.86-.86 9 9 0 0 0 -4.31.7 8.73 8.73 0 0 0 -1.86 1.05 6.83 6.83 0 0 0 -.86.74 2.35 2.35 0 0 0 -.73 1 .67.67 0 0 0 .82.81z"/><path d="m241.77 156.44a42.18 42.18 0 0 0 -6.76 4.64 27.92 27.92 0 0 0 -5.67 6 1 1 0 0 0 1.52 1.17c.9-1 1.7-2 2.59-3s1.81-1.91 2.78-2.8a40.63 40.63 0 0 1 6.3-4.7.76.76 0 0 0 -.76-1.31z"/><g fill="#18c4ff"><path d="m161.11 460.57a98.12 98.12 0 0 0 40.15 50.84 90 90 0 0 0 8.18 4.6 48.75 48.75 0 0 0 8.52 3.64c1 .28 1.71-1.23.73-1.72-2.46-1.23-5.06-2.16-7.54-3.37s-4.67-2.41-6.92-3.76a97.09 97.09 0 0 1 -33.93-34 92.87 92.87 0 0 1 -7.73-16.65c-.32-.91-1.78-.52-1.46.41z"/><path d="m322.16 539.47a1.59 1.59 0 0 1 .29-.15l-.17.07a2.66 2.66 0 0 1 .67-.18h-.2a2.43 2.43 0 0 1 .66 0h-.2a2.62 2.62 0 0 1 .38.09v-1.5c-.3.09-.59.21-.88.32a.84.84 0 0 0 -.46.35.81.81 0 0 0 -.07.59.74.74 0 0 0 .35.46.73.73 0 0 0 .59.08c.29-.1.59-.19.88-.3a.94.94 0 0 0 .4-.28.68.68 0 0 0 .17-.47.79.79 0 0 0 -.57-.75 3.22 3.22 0 0 0 -2.54.47.73.73 0 0 0 -.32.41.68.68 0 0 0 .07.54.71.71 0 0 0 1 .25z"/><path d="m284.59 669.63c3.56.62 7.1 1.15 10.61 2a82.67 82.67 0 0 1 10.51 3.43 78.91 78.91 0 0 1 9.89 4.77q2.36 1.33 4.64 2.79c1.45.93 3.07 1.77 3.52 3.56a.77.77 0 0 0 1.51-.21c-.21-3.41-4.31-5.49-6.89-7a78.58 78.58 0 0 0 -10.5-5.26c-7.19-3-15.27-5.28-23.09-5.54-.83 0-1 1.32-.2 1.47z"/><path d="m282 687.55c3.74 1.88 8 2.36 12 3.54a57 57 0 0 1 10.87 4.49 57.89 57.89 0 0 1 9.75 6.58 58.69 58.69 0 0 1 4.4 4.08c.43.44 3.9 4.51 3.91 4.51-.92.48-.12 1.82.8 1.38 2.67-1.27-2.11-5.52-3-6.47a60.38 60.38 0 0 0 -7.62-6.76 59.75 59.75 0 0 0 -18.1-9.2c-4-1.24-8.42-1.55-12.24-3.39-.83-.4-1.55.82-.73 1.24z"/><path d="m285.43 694.66a16.22 16.22 0 0 1 2-2l.27-.22h.06l.12-.09c.19-.15.39-.29.58-.42.41-.28.83-.53 1.26-.77a.76.76 0 0 0 .27-1 .77.77 0 0 0 -1-.27 16.34 16.34 0 0 0 -4.56 3.88.71.71 0 0 0 1 1z"/><path d="m290.58 698.56q1.91-1.45 3.77-3l1.83-1.46a18.17 18.17 0 0 0 1.84-1.55c.62-.66-.19-1.85-1-1.3a19.34 19.34 0 0 0 -1.84 1.55l-1.83 1.56q-1.8 1.54-3.63 3c-.63.51.22 1.62.86 1.12z"/><path d="m294.75 703.79c1.4-1.34 2.86-2.62 4.38-3.82q1.1-.88 2.25-1.71l1.13-.8a9.35 9.35 0 0 0 1.3-.94.8.8 0 0 0 .06-1 .82.82 0 0 0 -1-.2 7.06 7.06 0 0 0 -1.23.81l-1.18.89c-.79.6-1.57 1.22-2.33 1.86-1.51 1.26-3 2.59-4.34 4-.63.63.34 1.6 1 1z"/><path d="m300.8 707.62a12.87 12.87 0 0 1 2.71-1.91 13.17 13.17 0 0 0 2.67-2 9 9 0 0 1 2.44-2 6.53 6.53 0 0 0 2.69-1.77c.52-.7-.6-1.52-1.19-.92a11.3 11.3 0 0 1 -2.64 1.51 11.81 11.81 0 0 0 -2.43 2.2c-1.53 1.61-3.7 2.36-5.23 4-.61.65.36 1.62 1 1z"/><path d="m308.92 711.5c1.34-1 2.7-2 4-3l1.94-1.5 1-.78c.21-.16.59-.56.8-.59h-.44.09l-.49-.38v.05l-.11-.42v.12l.11-.41.05-.08.59-.24h-.05l.71.41a.84.84 0 0 0 -1.12-.29.83.83 0 0 0 -.3 1.12.84.84 0 0 0 .71.41 1 1 0 0 0 .93-1.2 1 1 0 0 0 -1.44-.56 8.86 8.86 0 0 0 -1.35 1l-1.3 1c-1.76 1.38-3.48 2.8-5.2 4.23-.6.49.2 1.54.83 1.08z"/><path d="m317.07 714.86a27.77 27.77 0 0 0 2.53-2.19c.78-.76 1.52-1.56 2.22-2.38a.83.83 0 0 0 0-1.16.84.84 0 0 0 -1.16 0 52.46 52.46 0 0 1 -4.43 4.64.69.69 0 0 0 .84 1.09z"/><path d="m189.36 838.59a94.71 94.71 0 0 0 23.95-7.1c3.86-1.66 7.65-3.48 11.42-5.35 1.91-1 3.83-1.91 5.72-2.9.85-.44 3.27-1.68 1.76-2.9a.93.93 0 0 0 -.92-.24 1.59 1.59 0 0 0 -.82.62.91.91 0 0 0 .14 1.09l.09.09a.89.89 0 0 0 1.39-1.07l-.07-.11-.14 1.09-.09.11-.92-.25.13.11-.28-.67v.27l.28-.67a9.44 9.44 0 0 1 -2.52 1.37l-2.48 1.26c-1.7.87-3.41 1.74-5.12 2.58-3.39 1.68-6.81 3.29-10.29 4.75a96.2 96.2 0 0 1 -21.59 6.56c-.9.14-.5 1.48.38 1.36z"/></g><g fill="#fff"><path d="m145.81 406.78c6.52-5.52 10-13.69 14.18-20.9a45.51 45.51 0 0 1 3.57-5.23c1.49-1.92 3.22-3.57 4.84-5.37 3.46-3.87 5.32-9.08 7.52-13.72 2.59-5.48 5.5-10.88 7.34-16.68.3-.94-1.14-1.31-1.46-.4a117.2 117.2 0 0 1 -6.89 14.77c-1.21 2.34-2.39 4.7-3.67 7a32 32 0 0 1 -4.47 6.12c-1.59 1.74-3.24 3.41-4.68 5.28a37.24 37.24 0 0 0 -3.33 5.34c-2 3.77-3.73 7.65-5.63 11.46a35.26 35.26 0 0 1 -8.3 11.34c-.68.59.3 1.56 1 1z"/><path d="m197.63 354.52a143 143 0 0 0 -8.6 14.71 119 119 0 0 0 -5.56 14.7c-1.54 4.73-3.53 9.27-7 12.95a32.66 32.66 0 0 0 -4.27 5.19c-1.35 2.2-1.53 4.69-2.43 7.06-1.81 4.8-6 8.27-7.19 13.38a.8.8 0 0 0 1.54.42c1.24-4.43 4.75-7.68 6.76-11.73 1.14-2.29 1.31-4.9 2.42-7.18a21 21 0 0 1 4.37-5.4 36.88 36.88 0 0 0 4.7-5.21 36.37 36.37 0 0 0 3.29-6.31c2-4.76 3.36-9.76 5.4-14.51 2.48-5.79 5.32-11.5 8.16-17.12a.94.94 0 0 0 -1.63-1z"/><path d="m188.55 431c2.72-4.36 3.6-9.4 5.18-14.2a32.66 32.66 0 0 1 3.53-7.49 34.52 34.52 0 0 0 3.69-7.11c1-2.76 1.54-5.63 2.49-8.4.89-2.6 1.92-5.15 2.93-7.7s2.36-5.16 3.37-7.82 1.45-5.2 2.35-7.75a19.8 19.8 0 0 0 1.25-4 5.22 5.22 0 0 0 -.05-1.72c-.19-1-.36-1.24.52-1.81a7.73 7.73 0 0 0 3.49-5.72c.13-1.07-1.56-1.07-1.68 0a6 6 0 0 1 -1.45 3.28c-.69.78-1.8 1.1-2.42 1.88s-.32 1.71-.18 2.64a5.73 5.73 0 0 1 -1.21 3.8 14.22 14.22 0 0 0 -1.67 3.3c-.38 1.26-.64 2.57-.95 3.85a64.77 64.77 0 0 1 -2.32 7.88c-1 2.56-2.19 5.06-3.2 7.62s-1.83 5.21-2.64 7.86a32.52 32.52 0 0 1 -3.43 7.66 34.58 34.58 0 0 0 -3.35 6.86c-1.86 5.44-2.49 11.32-5.48 16.32a.72.72 0 0 0 1.23.73z"/><path d="m241.57 347.06c-3.69 11.39-9.59 21.9-13.68 33.13a66.67 66.67 0 0 0 -4 17c-.25 3 0 6.11-.92 9s-3.69 4.74-5.09 7.44c-1.61 3.09-2.25 6.77-3.08 10.12-.94 3.82-1.59 7.67-2.67 11.46a.81.81 0 0 0 1.57.43c1.12-3.24 2.44-6.44 3.44-9.72s1.39-6.4 2.3-9.55a12.89 12.89 0 0 1 2-4.11 36.65 36.65 0 0 0 2.6-3.61c1.38-2.48 1.69-5.33 1.9-8.11a71.41 71.41 0 0 1 3.47-17.35c1.92-5.75 4.36-11.33 6.75-16.9a126.94 126.94 0 0 0 6.84-18.85.72.72 0 0 0 -1.38-.38z"/><path d="m254.29 356.16c-1.49 3.82-3.15 7.58-4.52 11.45a74.51 74.51 0 0 0 -2.94 11.68c-.74 4-1.42 8.09-2.15 12.13-.35 2-.66 3.92-1.07 5.87a7.27 7.27 0 0 1 -2.25 4.41c-.79.64.33 1.74 1.12 1.11 2.74-2.2 2.91-6.33 3.5-9.53.76-4.2 1.57-8.39 2.34-12.6a92.57 92.57 0 0 1 2.9-12.18c1.32-4.05 3-8 4.43-12 .32-.86-1-1.21-1.36-.38z"/><path d="m238.45 407.66v.56a.66.66 0 0 0 .06.27.72.72 0 0 0 .37.37.67.67 0 0 0 .28.06h.18a.71.71 0 0 0 .31-.19l.11-.14a.64.64 0 0 0 .1-.35v-.56a.6.6 0 0 0 -.06-.27.51.51 0 0 0 -.15-.23.54.54 0 0 0 -.22-.15.66.66 0 0 0 -.27-.06h-.19a.61.61 0 0 0 -.31.18l-.11.14a.65.65 0 0 0 -.1.36z"/><path d="m237.46 413.41c0 3.62-.18 7.24-.52 10.86a46.2 46.2 0 0 1 -.74 5.24 19.79 19.79 0 0 1 -.61 2.29 25.5 25.5 0 0 0 -.92 2.42c-.17.85.92 1.69 1.58.92a11 11 0 0 0 1.84-4.7 30.34 30.34 0 0 0 .59-5.38c.14-3.88.18-7.77.11-11.65a.67.67 0 0 0 -1.33 0z"/></g><path d="m658 346.06a73 73 0 0 0 1.31 42.18 68.11 68.11 0 0 0 4.91 11.17c.57 1 2.13.12 1.58-.92a73.08 73.08 0 0 1 -6.4-52.05.73.73 0 0 0 -1.4-.38z" fill="#18c4ff"/><path d="m772.84 364.07q3.1-1.72 6.1-3.61c1-.63 2-1.27 3-1.93a16.9 16.9 0 0 0 2.87-2.07.83.83 0 0 0 -1-1.29 10.11 10.11 0 0 0 -1.45 1l-1.45 1c-.94.65-1.89 1.29-2.84 1.92q-2.92 1.92-5.94 3.66a.75.75 0 0 0 .75 1.29z" fill="#18c4ff"/><path d="m627.16 346.06a495.11 495.11 0 0 1 -44.32 22.94q-22.9 10.44-46.74 18.62-23.61 8.06-48 13.76-12.25 2.86-24.64 5.12c-7.7 1.39-15.45 2.5-23.17 3.75-14 2.28-28.72 5.36-40.26 14.19a42 42 0 0 0 -4 3.45c-.81.8.41 2 1.25 1.25 11-9.85 25.35-13.76 39.61-16.26 7.54-1.32 15.12-2.33 22.66-3.63q12.18-2.1 24.26-4.79a497.34 497.34 0 0 0 48.19-13.36q23.58-7.83 46.31-18a485.13 485.13 0 0 0 44.23-22.56q2.73-1.57 5.43-3.18a.76.76 0 0 0 -.76-1.31z"/><path d="m398.48 438.31a33.23 33.23 0 0 1 13.16-5.87c.93-.2.53-1.59-.39-1.42a32.16 32.16 0 0 0 -13.47 6.09c-.7.53 0 1.74.7 1.2z"/><path d="m404.19 445.68c4.68-1.75 9.42-3.39 14.05-5.27.86-.36.52-1.77-.4-1.44-4.72 1.66-9.35 3.58-14 5.39-.81.31-.46 1.63.37 1.32z"/><path d="m421.31 449.23c6.1 3.78 13.71 2.15 20.3.85 8.15-1.59 16.3-1.82 24.57-2.15a367.43 367.43 0 0 0 45.26-4.63 371.92 371.92 0 0 0 44.48-10.18 373.34 373.34 0 0 0 42.78-15.51 364.66 364.66 0 0 0 40.67-20.69c1.65-1 3.3-2 4.93-3 1.31-.8.12-2.87-1.2-2.06a367.82 367.82 0 0 1 -39.73 21.14 369 369 0 0 1 -42.13 16 372.47 372.47 0 0 1 -43.65 10.83 364 364 0 0 1 -44.77 5.43c-7.95.47-16 .42-23.88 1.41-3.71.46-7.35 1.29-11 2a33.12 33.12 0 0 1 -10.77.77 17.35 17.35 0 0 1 -5.08-1.53.75.75 0 0 0 -.75 1.29z"/><path d="m808.23 322.71a172.78 172.78 0 0 0 57.39-40.36c8-8.54 16.25-18.06 19.8-29.45 3.1-10 2.44-20.77-.8-30.61a66.48 66.48 0 0 0 -16.81-26.7c-8.32-8.06-18.48-14-29.12-18.42a175.87 175.87 0 0 0 -34.13-9.79c-13.48-2.62-27.17-4.27-40.9-3-13.34 1.28-26.61 4.62-40.09 3.63-11.59-.86-24.55-5.6-35.27 1.26a17.58 17.58 0 0 0 -5.15 5.05c-.66 1 .92 1.9 1.59.94 3-4.22 7.92-6.35 12.87-7.17 6.15-1 12.43.22 18.51 1.15a84.45 84.45 0 0 0 19.39.83c6.57-.49 13.08-1.55 19.6-2.46a131.45 131.45 0 0 1 19.91-1.5 139.14 139.14 0 0 1 20.06 1.89 209.86 209.86 0 0 1 34.63 8.21c10.74 3.63 21.13 8.56 30.16 15.47a66.88 66.88 0 0 1 20.07 24.63c4.33 9.23 6.47 19.79 4.88 29.95-1.82 11.55-8.68 21.04-16.18 29.74a177.13 177.13 0 0 1 -53.64 41.83c-2.47 1.26-5 2.47-7.49 3.62-.86.39-.11 1.62.73 1.26z"/><path d="m685.84 185.19a50.84 50.84 0 0 1 9.08-6.84.74.74 0 0 0 -.74-1.27 48.54 48.54 0 0 0 -9.38 7.06c-.68.66.36 1.7 1 1.05z"/><path d="m692.48 191.23a59.52 59.52 0 0 1 12.15-7.08c.82-.36.23-1.79-.61-1.46a49 49 0 0 0 -12.44 7.37c-.66.52.23 1.69.9 1.17z"/><path d="m701.87 197a30.74 30.74 0 0 0 6.33-2.92 40.27 40.27 0 0 0 5.77-3.94c.81-.67-.26-2.07-1.13-1.46-1.85 1.29-3.69 2.58-5.64 3.71s-4 2.09-5.94 3.17a.79.79 0 0 0 .61 1.44z"/><path d="m714.92 197.07c2.05 3.25 6.31 2.57 9.25 1.11 2.27-1.13 4.33-2.51 7-2.59a29.08 29.08 0 0 1 7.56 1.24 208.85 208.85 0 0 1 28.16 9.17c18.86 7.5 37 16.76 55.66 24.63q3.5 1.47 7 2.87l3.09 1.2c.91.35 2.26.78 2.51 1.86a3.94 3.94 0 0 1 -.61 2.42 1.4 1.4 0 0 1 -.27.39 9.94 9.94 0 0 1 -1.17 1.17 63 63 0 0 1 -9.31 6.36c-9.89 6-20.16 11.37-30.36 16.81-4.72 2.52-9.45 5-14.13 7.61a89.72 89.72 0 0 0 -8.76 5.2 12.57 12.57 0 0 0 -1.15.89c-1 .92.48 2.44 1.52 1.53a6.78 6.78 0 0 1 .92-.69c.54-.37 1.1-.71 1.65-1.06 1.54-.94 3.12-1.82 4.69-2.7 4.45-2.51 9-4.92 13.46-7.34 10.46-5.61 21-11.14 31.18-17.21a96.31 96.31 0 0 0 10.66-7 12.16 12.16 0 0 0 2.69-2.62 6.28 6.28 0 0 0 1.12-3.67c-.11-2-1.73-3-3.39-3.72-9.42-3.85-18.77-7.75-28-12s-18.73-8.67-28.21-12.74a279 279 0 0 0 -28.36-10.68 107.09 107.09 0 0 0 -14.73-3.76 13.3 13.3 0 0 0 -6.94.46c-2.13.83-4 2.32-6.14 3-1.76.58-4.12.69-5.33-1-.53-.75-1.76-.07-1.25.73z"/><g fill="#18c4ff"><path d="m688.77 306.86c-3.91 5.17-5.06 12.22-4.32 18.55a42.93 42.93 0 0 0 7.24 18.42c7.06 10.64 17.11 20.32 28.92 25.45 5.93 2.57 12.78 4.44 19.26 3.14 6.1-1.22 10.25-5.75 12.4-11.4 2.23-5.88 2.55-12.54 2.3-18.76a78.37 78.37 0 0 0 -3.55-20.2 91.1 91.1 0 0 0 -9.75-21.06c-3.72-5.93-9.29-13.46-17.34-11.71-1.15.25-.66 2 .48 1.76 7.05-1.37 11.59 5.95 14.71 10.95a88.76 88.76 0 0 1 8.49 17.41 78.17 78.17 0 0 1 4.25 18.59 58.8 58.8 0 0 1 -.71 18.15c-1.15 5.22-3.63 10.58-8.75 12.91-5.58 2.54-12.33 1.11-17.86-.84-11.42-4-20.87-12.58-28.23-22-4.3-5.5-7.92-11.77-9.34-18.67a27.86 27.86 0 0 1 3.1-19.92c.51-.86-.73-1.52-1.3-.76z"/><path d="m744.91 371.67c.18.05.05.37-.14.35s-.29-.22-.35-.4a3.31 3.31 0 0 1 .59-3.17 7 7 0 0 1 .31 4.42 3.57 3.57 0 0 1 4.18-.13 6.83 6.83 0 0 1 2.57 3.6 5.49 5.49 0 0 1 -.07 4.66 4.17 4.17 0 0 1 -5.45 1.19 6.18 6.18 0 0 1 -2.85-5.19 1.87 1.87 0 0 1 .41-1.5 6.13 6.13 0 0 1 1-.57c.34-.21.6-.67.36-1"/><path d="m744.41 372.17.08.05-.21-.49.09-.24.51-.21c.28.23.37.2.24-.07v-.2a2.8 2.8 0 0 1 0-.71 2.68 2.68 0 0 1 .52-1.21l-1.5-.4a6.45 6.45 0 0 1 .25 3.93 1 1 0 0 0 1.59.92c1.38-1.13 3.29 0 4.15 1.19 1 1.37 1.78 3.5 1.23 5.17a2.84 2.84 0 0 1 -3.37 1.66 4.33 4.33 0 0 1 -3.06-3.37 5.22 5.22 0 0 1 -.18-1.3c0-.55.1-.64.57-.87a1.88 1.88 0 0 0 1-2.6c-.67-1.14-2.25-.14-1.74 1l.06.15-.13-.52v-.06a2 2 0 0 0 -.36.18 3.27 3.27 0 0 0 -.75.42 2.55 2.55 0 0 0 -.86 1.77 7.22 7.22 0 0 0 .64 3.48 6 6 0 0 0 5.05 3.84 4.82 4.82 0 0 0 5-3.26c.73-2.35-.29-5.24-1.75-7.1-1.66-2.13-4.76-3-7-1.14l1.59.92a8.09 8.09 0 0 0 -.35-4.91c-.22-.54-1-1-1.5-.4a4 4 0 0 0 -.6 4.3 1 1 0 0 0 1.6.4.9.9 0 0 0 -.12-1.44c-.65-.42-1.46.59-.85 1.1z"/><path d="m690.19 308.3c-.45 7.12 2.21 14 6.48 19.61 4.52 5.94 10.71 10.31 17.25 13.78a121.94 121.94 0 0 0 22 9.16c7.57 2.26 15.62 3.46 23.48 2.2 12.42-2 24.48-11.16 25.75-24.32.72-7.47-1.93-15.11-5.55-21.54a50.52 50.52 0 0 0 -13.12-15.19 51.7 51.7 0 0 0 -41.54-9.65 50.8 50.8 0 0 0 -5.42 1.42c-1.37.44-.79 2.6.59 2.16a48.71 48.71 0 0 1 40.75 5.1c10.71 6.88 19.52 18.53 21.51 31.29a22.23 22.23 0 0 1 -5 18.27 30.74 30.74 0 0 1 -14.76 9.2c-14.26 4.11-29.57-1.65-42.48-7.52-7.2-3.28-14.31-7.25-19.78-13.06-5.28-5.62-9-13.07-8.72-20.9 0-.93-1.38-.92-1.43 0z"/><path d="m782.32 336.09a3.74 3.74 0 0 0 1.58 2.16c.83.39 2.1-.24 1.9-1.13s-1.66-1-2.18-1.87c.52.45 1.27-.36 1.22-1.05s-.42-1.36-.25-2 1-1.16 1.8-1.44a6.35 6.35 0 0 1 3.15-.59 6.28 6.28 0 0 1 2.1.89l5.21 3c.86.5 1.83 1.14 1.94 2.13a3.11 3.11 0 0 1 -.82 2.1 31 31 0 0 1 -3.4 3.85 6.69 6.69 0 0 1 -3.39 2c-2 .32-3.83-.94-5.32-2.27a6.33 6.33 0 0 1 -1.82-2.3 2.44 2.44 0 0 1 .51-2.72"/><path d="m781.62 336.29a4.39 4.39 0 0 0 1.65 2.6 2.41 2.41 0 0 0 2.65-.08 1.87 1.87 0 0 0 .57-2.5 2.79 2.79 0 0 0 -1-.93c-.31-.19-.77-.33-1-.65l-1.4 1.41a1.82 1.82 0 0 0 2.59-1 2.56 2.56 0 0 0 .13-1.64c-.09-.52-.36-1 .12-1.36a5.3 5.3 0 0 1 1.59-.66 3.71 3.71 0 0 1 2.13-.19 19 19 0 0 1 3.88 2.11 25 25 0 0 1 3.61 2.14c.4.32.63.64.45 1.15a6.19 6.19 0 0 1 -1.17 1.71 27.68 27.68 0 0 1 -2.95 3.17 4.3 4.3 0 0 1 -3.33 1.47 7.29 7.29 0 0 1 -3.69-2.16c-.78-.72-2.2-2.2-1.11-3.24s-.54-2.61-1.6-1.6a3.65 3.65 0 0 0 -.63 4.21 9.8 9.8 0 0 0 3.35 3.54 6.78 6.78 0 0 0 4.71 1.47 7.63 7.63 0 0 0 4.18-2.38 29.48 29.48 0 0 0 3.57-4.08c1-1.34 1.41-2.95.28-4.34s-2.76-2-4.13-2.75c-1.55-.9-3.2-2.17-5-2.6a7.44 7.44 0 0 0 -5.3 1.11 2.71 2.71 0 0 0 -1.33 1.88 3.67 3.67 0 0 0 .13 1.47c0 .16.08.34.13.5a.35.35 0 0 1 0 .2c-.15.2 0 .22.35.07-1.07-.64-1.91.74-1.24 1.61a3.55 3.55 0 0 0 1.27.92c.17.09.34.17.5.27s.18.21.22.12c-.18.37-.72.13-.92 0a4.94 4.94 0 0 1 -1-1.53.73.73 0 0 0 -1.32.56z"/><path d="m776.92 442.55c-.74 4.94 1.24 10 3.7 14.19a31.62 31.62 0 0 0 9.36 10.2l.94-2.23-.69-.25c-1.28-.46-1.78 1.34-.86 2l.61.45c1.1.82 2.57-1.07 1.48-1.92a36.42 36.42 0 0 1 -8.63-9.14c-2.42-3.79-4.61-8.5-4.14-13.09.1-1-1.62-1.25-1.77-.24z"/><path d="m684.67 465.44a12 12 0 0 0 6.53-2.44 26.62 26.62 0 0 0 2.79-2.3 26.29 26.29 0 0 0 2.56-2.61c.72-.92-.42-2.14-1.31-1.31s-1.51 1.6-2.29 2.38a26.42 26.42 0 0 1 -2.5 2.22 12.2 12.2 0 0 1 -5.78 2.53c-.94.12-1 1.53 0 1.51z"/><path d="m709 611.77c2.17-1.54 4.29-3.15 6.34-4.86a59.32 59.32 0 0 0 5.92-5.4.76.76 0 0 0 -1.07-1.07c-1.92 1.75-3.76 3.59-5.74 5.27s-4 3.3-6.18 4.82c-.74.53 0 1.77.73 1.24z"/><path d="m713 618a33.81 33.81 0 0 0 11.11-9.86.85.85 0 0 0 -.3-1.16.86.86 0 0 0 -1.16.3 35.23 35.23 0 0 1 -10.4 9.43.75.75 0 0 0 .75 1.29z"/><path d="m382 223.68c-7.94-3.08-16.82-4.53-25-2.14s-15.36 9.23-16.41 17.68c-1.5 12.09 9.91 22.66 21.88 24.92s26.45-3.22 30.18-14.92c1.76-5.52.95-11.5.14-17.23q-3.51-24.57-7-49.14l16.39-5.54c2.26-.76 4.61-1.58 6.31-3.26 4.4-4.37 2.33-11.74 0-17.47a5.42 5.42 0 0 0 -2.11-3 5.31 5.31 0 0 0 -3.86 0 84.6 84.6 0 0 0 -24.62 11.42 8 8 0 0 0 -3.2 3.27 8.47 8.47 0 0 0 -.1 4.66l8.47 50.17"/><path d="m382.15 223c-12.21-4.92-27.65-5.79-37.3 4.69a20.18 20.18 0 0 0 -5.55 15.73 23.23 23.23 0 0 0 7.92 14.48 31.38 31.38 0 0 0 31.29 6.1 25.48 25.48 0 0 0 12.49-9c3.89-5.54 4.12-12.36 3.37-18.86-1-8.85-2.51-17.67-3.79-26.49-1.3-9-2.56-18-3.84-27l-.74 1.31 15-5.06c3.82-1.28 8-2.55 10-6.44 1.7-3.42 1.24-7.45.27-11a42 42 0 0 0 -2-5.55c-.75-1.78-1.87-3.36-3.93-3.61s-4.41.71-6.39 1.35c-2.26.73-4.49 1.56-6.68 2.47a85.44 85.44 0 0 0 -12.5 6.46 20.28 20.28 0 0 0 -5.16 3.87 7.08 7.08 0 0 0 -1.22 5.79c.75 5.2 1.79 10.38 2.69 15.56 2.07 11.87 4.05 23.76 6.05 35.65.21 1.22 2.07.7 1.86-.51l-4.73-28c-.8-4.76-1.57-9.52-2.35-14.28l-1.12-6.9c-.37-2.21-.9-4.55.87-6.3a26.24 26.24 0 0 1 5-3.43q2.76-1.68 5.64-3.15a83 83 0 0 1 11.86-4.91c.91-.3 1.84-.59 2.76-.86a8.23 8.23 0 0 1 3.16-.58c1.92.24 2.54 3 3.1 4.52 1.17 3.2 2.26 6.84 1.62 10.27-.89 4.7-5.07 6.13-9.1 7.49l-15.21 5.16a1.1 1.1 0 0 0 -.74 1.31q3.16 22.1 6.28 44.22c1 6.85 2.67 14.31.66 21.12a19.62 19.62 0 0 1 -9 11.08 29 29 0 0 1 -29.32-.21 24.8 24.8 0 0 1 -10.46-11.71 17 17 0 0 1 1.31-15.11 23.71 23.71 0 0 1 14.78-10.52c7.57-1.8 15.56-.37 22.76 2.26.93.34 1.29-1.1.41-1.46z"/><path d="m559.28 477.17q-29.89 3.9-59.42 10.2c-2.71.57-5.67 1.33-7.28 3.58s-1.35 5.59-.91 8.48l10.23 68c-.31-2.08-11.76-.68-13.15-.34a20.6 20.6 0 0 0 -11.5 7.13c-5.93 7.64-3.26 19.36 3.87 25.3 13 10.81 35.63 4 34.06-14.66-1.49-17.75-3.71-32.32-6.67-56 18.31-2.33 39.83-4.5 58.15-6.83l3 39.17c-5.27-1.2-10.86-1.8-16-.25-8.37 2.5-12.32 9.88-10.44 18.26a23.38 23.38 0 0 0 13.93 17c7.42 3.17 18.07 3.27 23.57-3.52 3.53-4.35 3.1-10.58 2.49-16.14-3.12-28.5-6.24-62.31-9.36-90.8-.27-2.41-.57-4.93-2-6.88s-4.37-3-6.33-1.6"/><path d="m559.28 476.25c-19.72 2.48-39.34 5.66-58.8 9.68-3.56.74-7.76 1.61-9.55 5.19-1.93 3.84-.57 8.6 0 12.61l4.53 30c1.7 11.32 3.47 22.63 5.24 34l2.35-.65c-.39-1.63-2.55-1.84-3.89-2a38 38 0 0 0 -6.57.19 23.86 23.86 0 0 0 -13.59 5.32c-9.73 8.21-7.22 23.53 2.4 30.7 7.48 5.58 18.45 6.23 26.39 1.21a18.32 18.32 0 0 0 7.89-10.32 20.6 20.6 0 0 0 .64-7.54q-.4-4.73-.92-9.44c-1.43-13.4-3.42-26.74-5.1-40.11q-.39-3.12-.77-6.24l-1 1c15.14-1.89 30.33-3.42 45.48-5.18 4.23-.5 8.45-1 12.67-1.54l-1.1-1.09 3 39.17 1.42-1.08c-7.25-1.63-15.76-2.3-22.1 2.36a15.91 15.91 0 0 0 -6.14 15.15 24.91 24.91 0 0 0 9.16 16.23 26.86 26.86 0 0 0 17.55 5.57c6.12-.28 12.47-3.14 15-9.07a22.65 22.65 0 0 0 1.25-10.49c-.27-3.83-.8-7.64-1.22-11.46q-2.72-24.69-5.2-49.42-1.23-12.27-2.51-24.54c-.4-3.8-.65-7.66-1.29-11.42-.54-3.19-2.1-6.42-5.48-7.29a4.94 4.94 0 0 0 -4 .6c-1.12.72-.08 2.52 1 1.79a3.4 3.4 0 0 1 3.84.21 6.81 6.81 0 0 1 2.54 4.41 94.39 94.39 0 0 1 1.27 10.62q1.2 11.1 2.31 22.21c1.53 15 2.91 30 4.41 45 .35 3.49.7 7 1.06 10.46s.83 6.83.95 10.27c.11 3.24-.12 6.67-1.84 9.52a12.74 12.74 0 0 1 -6.67 5.19c-10.92 3.89-24-2.39-28.27-13-2.29-5.6-2.64-12.38 1.78-17 5.6-5.92 14.71-5.33 22-3.7a1.13 1.13 0 0 0 1.42-1.08l-3-39.17c0-.53-.47-1.18-1.09-1.1-15.09 1.93-30.25 3.32-45.32 5.31-4.28.56-8.56 1.09-12.83 1.65-.47.06-1.05.4-1 1 1.65 12.9 3.37 25.79 4.83 38.71.64 5.62 1.22 11.25 1.67 16.89.35 4.44-.51 8.87-3.39 12.38-5.24 6.39-14.62 7.92-22.18 5.33a19.33 19.33 0 0 1 -10.71-8.79c-2.6-4.65-3.42-10.67-1.17-15.62 2.42-5.32 8.12-8.93 13.81-9.74a54.69 54.69 0 0 1 6.12-.51 20 20 0 0 1 3.1.09 5.61 5.61 0 0 1 1.08.23c.35.12.07 0 0-.1.35 1.56 2.57.86 2.35-.65q-4.18-28.85-8.55-57.66l-1.08-7.14a48.64 48.64 0 0 1 -.79-6.47c0-2 .41-3.95 2.09-5.2a13 13 0 0 1 4.92-1.88c9.25-2.11 18.59-3.9 27.92-5.59q15.9-2.89 31.93-5.08c1-.14.78-1.92-.24-1.8z"/></g><path d="m774.13 809.53c2.78-1.76 5.36-3.9 8-5.89l-1.77-1.36c-1.08 3.83-2.08 7.67-3.08 11.52a1.29 1.29 0 0 0 1.88 1.44l9.69-5.62-1.9-1.46-3.78 11.26a1.31 1.31 0 0 0 1.25 1.64 14.24 14.24 0 0 0 10.58-5.37c1-1.32-.82-3.18-1.85-1.85a11.73 11.73 0 0 1 -8.69 4.62l1.26 1.65 3.76-11.26a1.3 1.3 0 0 0 -1.89-1.46l-9.73 5.61 1.88 1.45c1-3.85 2-7.69 2.93-11.56a1.21 1.21 0 0 0 -2-1.17c-2.52 2.14-5.17 4.19-7.5 6.53a.8.8 0 0 0 1 1.25z"/><path d="m875 596a29.2 29.2 0 0 0 -2.61-8.77l-1.27 1.65a37.92 37.92 0 0 1 9 4.63 1.19 1.19 0 0 0 1.77-1 68.29 68.29 0 0 0 -.22-9.49l-1.8 1a23.39 23.39 0 0 1 7.68 7 1.23 1.23 0 0 0 2.22-.29 32.36 32.36 0 0 0 .3-11.19c-.22-1.59-2.72-.94-2.44.67a26.85 26.85 0 0 1 -.21 9.87l2.23-.29a25.87 25.87 0 0 0 -8.58-7.87 1.21 1.21 0 0 0 -1.8 1 69.89 69.89 0 0 1 .27 9.49l1.77-1a40.06 40.06 0 0 0 -9.64-4.76c-1-.34-1.69.83-1.27 1.65a34.53 34.53 0 0 1 3.11 8c.22 1 1.57.52 1.44-.4z"/></svg>